<svg xmlns="http://www.w3.org/2000/svg" viewBox="0 0 1600 400" data-strokes="4" data-nib-angle="40" data-nib-thick="0.35" data-nib-weight="14">
  <path d="M 583.4 184.4 L 583.1 184 L 582.8 183.4 L 582.4 182.6 L 582.3 181.6 L 582.8 180.2 L 583.9 178.6 L 585.7 176.6 L 588.3 174.2 L 591.5 171.4 L 595.5 168.3 L 600.2 165 L 605.5 161.4 L 611.5 157.6 L 618 153.9 L 624.9 150.3 L 632.2 146.8 L 639.6 143.5 L 647.3 140.3 L 654.9 137.4 L 662.5 134.7 L 670.1 132.3 L 677.6 130.1 L 685.2 128.2 L 692.9 126.5 L 700.6 125 L 708.4 123.7 L 716.2 122.6 L 723.8 121.8 L 731.2 121.3 L 738.1 121.1 L 744.5 121.2 L 750.2 121.7 L 755 122.6 L 758.8 123.8 L 761.5 125.4 L 763 127.3 L 763.2 129.6 L 762.2 132.2 L 759.9 135.2 L 756.3 138.5 L 751.4 142.2 L 745.4 146.2 L 738.3 150.4 L 730.1 154.8 L 721 159.5 L 711 164.4 L 700.2 169.5 L 689.1 174.6 L 677.6 179.8 L 665.8 185 L 654 190.1 L 642.3 195.1 L 630.8 199.9 L 619.5 204.5 L 608.7 208.9 L 598.4 213.1 L 588.7 217.2 L 579.8 220.9 L 572 224.4 L 565.1 227.7 L 559.5 230.5 L 555 233.1 L 551.8 235.2 L 549.9 236.9 L 549.3 238.3 L 550 239.2 L 551.9 239.8 L 555.2 240 L 559.7 239.8 L 565.5 239.2 L 572.6 238.2 L 580.8 236.9 L 590.2 235.2 L 600.6 233.3 L 612.1 231.1 L 624.4 228.8 L 637.7 226.2 L 652 223.5 L 667.3 220.6 L 683.5 217.5 L 700.2 214.3 L 717.4 211 L 734.9 207.7 L 752.3 204.4 L 769.5 201.2 L 786.3 198.2 L 802.4 195.3 L 817.4 192.7 L 831.3 190.3 L 844.1 188.2 L 855.7 186.4 L 866.2 184.7 L 875.2 183.3 L 882.7 182.1 L 888.5 181.1 L 892.6 180.3 L 895.1 179.6 L 895.9 179.1 L 895 178.7 L 892.3 178.4 L 887.8 178.1 L 881.5 177.9 L 873.4 177.9 L 863.5 178.1 L 852 178.4 L 838.8 178.8 L 824 179.4 L 807.5 180.1 L 789 181 L 769.2 182.1 L 748.1 183.4 L 726.2 184.9 L 703.9 186.4 L 681.2 188.2 L 658.1 190.1 L 635 192.1 L 611.9 194.4 L 588.9 196.7 L 566.5 199.1 L 545 201.5 L 524.4 204 L 505.1 206.6 L 487.1 209.2 L 470.6 211.8 L 455.9 214.4 L 442.7 216.9 L 431.1 219.3 L 421.1 221.6 L 412.8 223.5 L 406.3 225.2 L 401.8 226.3 L 399.1 227.1 L 398.4 227.4 L 399.6 227.3 L 403.1 226.8 L 408.7 225.8 L 416.5 224.3 L 426.5 222.3 L 438.9 219.8 L 453.6 216.8 L 470.2 213.5 L 488.3 210.1 L 507.6 206.5 L 528.2 202.8 L 550.2 199.1 L 573.2 195.4 L 596.8 191.7 L 620.9 188 L 645.3 184.4 L 670 181 L 694.8 177.5 L 719.8 174 L 745.2 170.4 L 770.9 166.8 L 797.1 163.2 L 823.6 159.7 L 850.3 156.3 L 876.9 153 L 902.9 150 L 928.2 147.1 L 952.2 144.4 L 974.9 142 L 996.1 139.7 L 1016 137.7 L 1033.9 135.9 L 1049.9 134.4 L 1064.3 133.1 L 1077.4 132 L 1089.1 131" fill="none" stroke="#15171a" stroke-width="14" stroke-linecap="round" stroke-linejoin="round" data-tstart="0.0000" data-tend="0.0287"/>
  <path d="M 802.9 133.7 L 803.2 133.7 L 803.4 133.7 L 803.6 133.6 L 803.7 133.5 L 804 133.3 L 804.4 133 L 804.8 132.8 L 805.3 132.4 L 805.8 132 L 806.3 131.6 L 806.8 131.2 L 807.2 130.7 L 807.5 130.2 L 807.7 129.7 L 807.8 129.2 L 807.7 128.7 L 807.4 128.3 L 806.9 127.9 L 806 127.7 L 804.7 127.6 L 803 127.8 L 800.9 128.3 L 798.2 129.1 L 795.2 130.4 L 792 132 L 788.7 133.9 L 785.4 136 L 782.2 138.2 L 779.3 140.4 L 776.7 142.6 L 774.5 144.6 L 772.9 146.4 L 771.9 147.9 L 771.5 149.2 L 771.5 150.2 L 771.9 151 L 772.8 151.5 L 774.1 151.8 L 775.8 151.8 L 777.9 151.6 L 780.4 151.2 L 783.1 150.6 L 786.1 149.7 L 789.3 148.6 L 792.6 147.3 L 796 145.9 L 799.3 144.3 L 802.5 142.5 L 805.7 140.7 L 808.7 138.8 L 811.5 136.8 L 814 134.9 L 816.2 132.9 L 818.1 131.2 L 819.8 129.6 L 821.2 128.2 L 822.2 127.1 L 822.9 126.3 L 823.3 125.8 L 823.4 125.6 L 823.2 125.6 L 822.7 125.8 L 821.7 126.4 L 820.4 127.4 L 818.8 128.7 L 817 130.4 L 815.1 132.3 L 813.4 134.2 L 812 136.1 L 810.8 137.9 L 810.1 139.5 L 809.7 140.9 L 809.7 142.2 L 810.1 143.3 L 810.7 144.1 L 811.8 144.8 L 813.2 145.2 L 814.9 145.3 L 817.1 145.1 L 819.8 144.5 L 822.8 143.6 L 826.3 142.3 L 829.9 140.7 L 833.8 138.9 L 837.7 136.9 L 841.7 134.8 L 845.6 132.5 L 849.3 130.2 L 852.9 127.8 L 856.2 125.2" fill="none" stroke="#15171a" stroke-width="14" stroke-linecap="round" stroke-linejoin="round" data-tstart="0.7365" data-tend="0.7517"/>
  <path d="M 856.2 129.7 L 856.1 129.8 L 856.1 129.8 L 856.1 129.8 L 856.1 129.8 L 856.2 129.8 L 856.3 129.7 L 856.5 129.6 L 856.9 129.4 L 857.6 129.1 L 858.6 128.7 L 860 128.1 L 861.8 127.3 L 864 126.5 L 866.5 125.6 L 869.3 124.6 L 872.4 123.6 L 875.7 122.5 L 879.1 121.6 L 882.5 120.7 L 885.7 119.8 L 888.9 119.1 L 891.9 118.5 L 894.7 118 L 897.3 117.5 L 899.6 117.2 L 901.5 117 L 903.2 116.9 L 904.5 116.9 L 905.6 117 L 906.3 117.3 L 906.6 117.6 L 906.6 118.1 L 906.3 118.9 L 905.5 119.7 L 904.3 120.8 L 902.7 122 L 900.7 123.3 L 898.4 124.7 L 895.9 126.1 L 893.1 127.6 L 890.2 129.1 L 887.2 130.6 L 884.2 132.1 L 881.3 133.4 L 878.5 134.7 L 875.9 135.8 L 873.7 136.7 L 871.8 137.5 L 870.3 138.1 L 869.2 138.5 L 868.4 138.8 L 868 138.9 L 867.8 138.9 L 867.9 138.9 L 868.1 138.8 L 868.5 138.6 L 869.2 138.3 L 870.2 138 L 871.5 137.6 L 873 137.1 L 875 136.6 L 877.3 136 L 880 135.4 L 883.1 134.7 L 886.7 133.9 L 890.7 133.1 L 895 132.3 L 899.7 131.4 L 904.5 130.6 L 909.3 129.7 L 914.2 128.8 L 918.9 127.9 L 923.4 126.9 L 927.7 126 L 931.8 125 L 935.7 124 L 939.4 123.1 L 942.9 122.1 L 946.2 121.2 L 949.3 120.3 L 952.1 119.4 L 954.6 118.6 L 956.9 117.8" fill="none" stroke="#15171a" stroke-width="14" stroke-linecap="round" stroke-linejoin="round" data-tstart="0.9358" data-tend="0.9497"/>
  <path d="M 935 116.8 L 934.5 116.9 L 934 116.9 L 933.4 117 L 933 117.1 L 932.6 117.2 L 932.3 117.2 L 932.2 117.3 L 932.1 117.3 L 932.2 117.2 L 932.5 117.2 L 933.2 117 L 934.1 116.8 L 935.6 116.6 L 937.5 116.2 L 939.8 115.7 L 942.7 115.1 L 946 114.4 L 949.6 113.7 L 953.5 112.9 L 957.6 112.2 L 961.8 111.5 L 965.9 110.8 L 970 110.2 L 974 109.5 L 977.9 109 L 981.5 108.4 L 984.9 107.9 L 988 107.5 L 990.8 107.1 L 993.3 106.8 L 995.6 106.6 L 997.4 106.4 L 998.9 106.3 L 1000 106.3 L 1000.8 106.4 L 1001.3 106.5 L 1001.5 106.7 L 1001.4 107 L 1001 107.4 L 1000.3 108.1 L 999.1 108.9 L 997.6 109.8 L 995.7 110.9 L 993.5 112.2 L 991.1 113.5 L 988.4 115 L 985.7 116.4 L 982.8 117.8 L 980 119.3 L 977.3 120.7 L 974.6 122 L 972.1 123.2 L 969.7 124.4 L 967.6 125.4 L 965.6 126.4 L 963.8 127.2 L 962.1 127.9 L 960.6 128.5 L 959.3 128.9 L 958.3 129.3 L 957.5 129.5 L 957 129.7 L 956.8 129.7 L 956.8 129.7 L 957.1 129.7 L 957.8 129.5 L 958.8 129.3 L 960.3 129 L 962.2 128.6 L 964.6 128.1 L 967.5 127.6 L 970.9 126.9 L 974.8 126.3 L 979 125.6 L 983.7 124.8 L 988.5 124.1 L 993.6 123.3 L 998.8 122.5 L 1004.2 121.8 L 1009.6 121.1 L 1014.9 120.4 L 1020.3 119.8 L 1025.4 119.1 L 1030.4 118.5 L 1035.1 117.8 L 1039.6 117.2 L 1043.8 116.7 L 1047.5 116.1 L 1050.9 115.7 L 1053.8 115.2 L 1056.2 114.8 L 1058.1 114.5" fill="none" stroke="#15171a" stroke-width="14" stroke-linecap="round" stroke-linejoin="round" data-tstart="0.9845" data-tend="1.0000"/>
</svg>
