<svg xmlns="http://www.w3.org/2000/svg" viewBox="0 0 520 513" width="520" height="513">
  <path d="M 200.00 510.50 L 2.00 510.50 L 1.50 509.00 L 7.50 497.00 L 9.50 495.00 L 23.50 466.00 L 25.50 464.00 L 35.50 443.00 L 37.50 441.00 L 58.00 400.50 L 155.00 400.50 L 156.00 399.50 L 172.00 399.50 L 177.00 397.50 L 180.00 397.50 L 181.00 396.50 L 186.00 395.50 L 191.00 392.50 L 193.00 392.50 L 208.00 382.50 L 221.50 369.00 L 233.50 351.00 L 236.50 345.00 L 236.50 343.00 L 258.50 300.00 L 258.50 298.00 L 283.50 249.00 L 283.50 247.00 L 350.50 113.00 L 347.00 112.50 L 346.00 111.50 L 207.50 111.00 L 216.50 94.00 L 218.50 92.00 L 221.50 85.00 L 223.50 83.00 L 226.50 76.00 L 228.50 74.00 L 231.50 67.00 L 233.50 65.00 L 236.50 58.00 L 238.50 56.00 L 242.50 47.00 L 248.50 38.00 L 258.50 18.00 L 264.50 9.00 L 266.50 4.00 L 269.00 1.50 L 517.00 1.50 L 517.50 3.00 L 491.50 55.00 L 491.50 57.00 L 475.50 88.00 L 475.50 90.00 L 464.50 111.00 L 464.50 113.00 L 460.50 119.00 L 460.50 121.00 L 447.50 146.00 L 447.50 148.00 L 444.50 152.00 L 444.50 154.00 L 428.50 185.00 L 428.50 187.00 L 413.50 216.00 L 413.50 218.00 L 395.50 253.00 L 395.50 255.00 L 378.50 288.00 L 378.50 290.00 L 362.50 321.00 L 362.50 323.00 L 348.50 350.00 L 348.50 352.00 L 331.50 385.00 L 331.50 387.00 L 303.50 443.00 L 294.50 456.00 L 288.50 463.00 L 273.00 478.50 L 255.00 491.50 L 233.00 502.50 L 231.00 502.50 L 221.00 506.50 L 214.00 507.50 L 213.00 508.50 L 201.00 509.50 L 200.00 510.50 Z" fill="#000000"/>
</svg>