<?xml version="1.0" encoding="UTF-8"?>
<svg xmlns="http://www.w3.org/2000/svg" viewBox="0 0 908.0 588.0" role="img" aria-label="JL monogram vector logo">
  <title>JL Monogram Logo</title>
  <g fill="#0b0b0b" fill-rule="evenodd">
    <path d="M 763.0 40.0 L 640.0 40.0 L 639.0 41.0 L 635.0 41.0 L 634.0 42.0 L 632.0 42.0 L 631.0 43.0 L 630.0 43.0 L 629.0 44.0 L 628.0 44.0 L 627.0 45.0 L 626.0 45.0 L 624.0 47.0 L 623.0 47.0 L 620.0 50.0 L 619.0 50.0 L 614.0 55.0 L 614.0 56.0 L 611.0 59.0 L 611.0 60.0 L 609.0 62.0 L 609.0 63.0 L 607.0 65.0 L 607.0 66.0 L 606.0 67.0 L 606.0 68.0 L 604.0 70.0 L 604.0 71.0 L 603.0 72.0 L 603.0 73.0 L 602.0 74.0 L 602.0 75.0 L 601.0 76.0 L 601.0 77.0 L 600.0 78.0 L 600.0 79.0 L 599.0 80.0 L 599.0 81.0 L 598.0 82.0 L 598.0 83.0 L 597.0 84.0 L 597.0 85.0 L 596.0 86.0 L 596.0 87.0 L 595.0 88.0 L 595.0 89.0 L 594.0 90.0 L 594.0 91.0 L 593.0 92.0 L 593.0 93.0 L 592.0 94.0 L 592.0 95.0 L 591.0 96.0 L 591.0 97.0 L 590.0 98.0 L 590.0 99.0 L 588.0 101.0 L 588.0 102.0 L 587.0 103.0 L 587.0 104.0 L 586.0 105.0 L 586.0 106.0 L 585.0 107.0 L 585.0 109.0 L 584.0 110.0 L 584.0 111.0 L 583.0 112.0 L 583.0 113.0 L 581.0 115.0 L 581.0 116.0 L 580.0 117.0 L 580.0 118.0 L 579.0 119.0 L 579.0 120.0 L 578.0 121.0 L 578.0 122.0 L 577.0 123.0 L 577.0 125.0 L 576.0 126.0 L 576.0 127.0 L 575.0 128.0 L 575.0 129.0 L 574.0 130.0 L 574.0 131.0 L 573.0 132.0 L 573.0 133.0 L 572.0 134.0 L 572.0 135.0 L 571.0 136.0 L 571.0 137.0 L 570.0 138.0 L 570.0 139.0 L 569.0 140.0 L 569.0 141.0 L 568.0 142.0 L 568.0 143.0 L 567.0 144.0 L 567.0 145.0 L 566.0 146.0 L 566.0 147.0 L 565.0 148.0 L 565.0 149.0 L 564.0 150.0 L 564.0 151.0 L 563.0 152.0 L 563.0 153.0 L 562.0 154.0 L 562.0 155.0 L 561.0 156.0 L 561.0 157.0 L 560.0 158.0 L 560.0 159.0 L 559.0 160.0 L 559.0 161.0 L 558.0 162.0 L 558.0 163.0 L 557.0 164.0 L 557.0 165.0 L 556.0 166.0 L 556.0 167.0 L 555.0 168.0 L 555.0 169.0 L 554.0 170.0 L 554.0 172.0 L 553.0 173.0 L 553.0 174.0 L 552.0 175.0 L 552.0 176.0 L 551.0 177.0 L 551.0 178.0 L 550.0 179.0 L 550.0 180.0 L 549.0 181.0 L 549.0 182.0 L 548.0 183.0 L 548.0 184.0 L 547.0 185.0 L 547.0 186.0 L 546.0 187.0 L 546.0 188.0 L 545.0 189.0 L 545.0 190.0 L 544.0 191.0 L 544.0 192.0 L 543.0 193.0 L 543.0 194.0 L 542.0 195.0 L 542.0 196.0 L 541.0 197.0 L 541.0 198.0 L 540.0 199.0 L 540.0 200.0 L 539.0 201.0 L 539.0 202.0 L 538.0 203.0 L 538.0 204.0 L 537.0 205.0 L 537.0 206.0 L 536.0 207.0 L 536.0 209.0 L 535.0 210.0 L 535.0 211.0 L 534.0 212.0 L 534.0 213.0 L 533.0 214.0 L 533.0 215.0 L 532.0 216.0 L 532.0 217.0 L 531.0 218.0 L 531.0 219.0 L 530.0 220.0 L 530.0 221.0 L 529.0 222.0 L 529.0 223.0 L 528.0 224.0 L 528.0 225.0 L 527.0 226.0 L 527.0 227.0 L 526.0 228.0 L 526.0 229.0 L 525.0 230.0 L 525.0 231.0 L 524.0 232.0 L 524.0 233.0 L 523.0 234.0 L 523.0 235.0 L 522.0 236.0 L 522.0 237.0 L 521.0 238.0 L 521.0 239.0 L 520.0 240.0 L 520.0 241.0 L 519.0 242.0 L 519.0 244.0 L 517.0 246.0 L 517.0 248.0 L 516.0 249.0 L 516.0 250.0 L 515.0 251.0 L 515.0 252.0 L 514.0 253.0 L 514.0 254.0 L 513.0 255.0 L 513.0 256.0 L 512.0 257.0 L 512.0 258.0 L 511.0 259.0 L 511.0 260.0 L 510.0 261.0 L 510.0 262.0 L 509.0 263.0 L 509.0 264.0 L 508.0 265.0 L 508.0 266.0 L 507.0 267.0 L 507.0 268.0 L 506.0 269.0 L 506.0 270.0 L 505.0 271.0 L 505.0 273.0 L 504.0 274.0 L 504.0 275.0 L 503.0 276.0 L 503.0 277.0 L 502.0 278.0 L 502.0 279.0 L 501.0 280.0 L 501.0 281.0 L 500.0 282.0 L 500.0 283.0 L 499.0 284.0 L 499.0 285.0 L 498.0 286.0 L 498.0 287.0 L 497.0 288.0 L 497.0 289.0 L 496.0 290.0 L 496.0 291.0 L 495.0 292.0 L 495.0 293.0 L 494.0 294.0 L 494.0 295.0 L 493.0 296.0 L 493.0 297.0 L 492.0 298.0 L 492.0 299.0 L 491.0 300.0 L 491.0 302.0 L 490.0 303.0 L 490.0 304.0 L 489.0 305.0 L 489.0 306.0 L 488.0 307.0 L 488.0 308.0 L 487.0 309.0 L 487.0 310.0 L 486.0 311.0 L 486.0 312.0 L 485.0 313.0 L 485.0 314.0 L 484.0 315.0 L 484.0 316.0 L 483.0 317.0 L 483.0 318.0 L 482.0 319.0 L 482.0 320.0 L 481.0 321.0 L 481.0 323.0 L 480.0 324.0 L 480.0 325.0 L 479.0 326.0 L 479.0 327.0 L 478.0 328.0 L 478.0 329.0 L 477.0 330.0 L 477.0 331.0 L 476.0 332.0 L 476.0 333.0 L 475.0 334.0 L 475.0 335.0 L 474.0 336.0 L 474.0 337.0 L 473.0 338.0 L 473.0 339.0 L 472.0 340.0 L 472.0 341.0 L 471.0 342.0 L 471.0 343.0 L 470.0 344.0 L 470.0 345.0 L 469.0 346.0 L 469.0 347.0 L 468.0 348.0 L 468.0 350.0 L 467.0 351.0 L 467.0 352.0 L 466.0 353.0 L 466.0 354.0 L 465.0 355.0 L 465.0 356.0 L 464.0 357.0 L 464.0 358.0 L 463.0 359.0 L 463.0 360.0 L 462.0 361.0 L 462.0 362.0 L 461.0 363.0 L 461.0 364.0 L 460.0 365.0 L 460.0 366.0 L 459.0 367.0 L 459.0 368.0 L 458.0 369.0 L 458.0 371.0 L 457.0 372.0 L 457.0 373.0 L 456.0 374.0 L 456.0 375.0 L 455.0 376.0 L 455.0 377.0 L 454.0 378.0 L 454.0 379.0 L 453.0 380.0 L 453.0 381.0 L 452.0 382.0 L 452.0 383.0 L 451.0 384.0 L 451.0 385.0 L 450.0 386.0 L 450.0 387.0 L 449.0 388.0 L 449.0 389.0 L 448.0 390.0 L 448.0 392.0 L 447.0 393.0 L 447.0 394.0 L 446.0 395.0 L 446.0 396.0 L 445.0 397.0 L 445.0 398.0 L 444.0 399.0 L 444.0 400.0 L 443.0 401.0 L 443.0 402.0 L 442.0 403.0 L 442.0 404.0 L 441.0 405.0 L 441.0 406.0 L 440.0 407.0 L 440.0 408.0 L 439.0 409.0 L 439.0 410.0 L 438.0 411.0 L 438.0 412.0 L 437.0 413.0 L 437.0 415.0 L 436.0 416.0 L 436.0 417.0 L 435.0 418.0 L 435.0 419.0 L 434.0 420.0 L 434.0 421.0 L 433.0 422.0 L 433.0 423.0 L 432.0 424.0 L 432.0 425.0 L 431.0 426.0 L 431.0 427.0 L 430.0 428.0 L 430.0 429.0 L 429.0 430.0 L 429.0 431.0 L 428.0 432.0 L 428.0 433.0 L 427.0 434.0 L 427.0 435.0 L 426.0 436.0 L 426.0 437.0 L 425.0 438.0 L 425.0 440.0 L 424.0 441.0 L 424.0 442.0 L 423.0 443.0 L 423.0 444.0 L 422.0 445.0 L 422.0 446.0 L 421.0 447.0 L 421.0 448.0 L 420.0 449.0 L 420.0 450.0 L 419.0 451.0 L 419.0 452.0 L 418.0 453.0 L 418.0 454.0 L 417.0 455.0 L 417.0 456.0 L 416.0 457.0 L 416.0 458.0 L 415.0 459.0 L 415.0 460.0 L 414.0 461.0 L 414.0 462.0 L 413.0 463.0 L 413.0 465.0 L 412.0 466.0 L 412.0 467.0 L 411.0 468.0 L 411.0 469.0 L 410.0 470.0 L 410.0 471.0 L 409.0 472.0 L 409.0 473.0 L 408.0 474.0 L 408.0 475.0 L 407.0 476.0 L 407.0 477.0 L 406.0 478.0 L 406.0 479.0 L 405.0 480.0 L 405.0 481.0 L 404.0 482.0 L 404.0 483.0 L 403.0 484.0 L 403.0 485.0 L 402.0 486.0 L 402.0 487.0 L 401.0 488.0 L 401.0 490.0 L 400.0 491.0 L 400.0 492.0 L 399.0 493.0 L 399.0 494.0 L 398.0 495.0 L 398.0 496.0 L 397.0 497.0 L 397.0 498.0 L 396.0 499.0 L 396.0 500.0 L 395.0 501.0 L 395.0 502.0 L 394.0 503.0 L 394.0 504.0 L 393.0 505.0 L 393.0 506.0 L 392.0 507.0 L 392.0 508.0 L 391.0 509.0 L 391.0 510.0 L 390.0 511.0 L 390.0 512.0 L 389.0 513.0 L 389.0 514.0 L 388.0 515.0 L 388.0 517.0 L 387.0 518.0 L 387.0 519.0 L 386.0 520.0 L 386.0 521.0 L 385.0 522.0 L 385.0 523.0 L 384.0 524.0 L 384.0 525.0 L 383.0 526.0 L 383.0 527.0 L 382.0 528.0 L 382.0 530.0 L 381.0 531.0 L 381.0 534.0 L 380.0 535.0 L 380.0 541.0 L 381.0 542.0 L 381.0 543.0 L 382.0 544.0 L 382.0 545.0 L 383.0 546.0 L 384.0 546.0 L 385.0 547.0 L 386.0 547.0 L 387.0 548.0 L 786.0 548.0 L 788.0 546.0 L 788.0 545.0 L 791.0 542.0 L 791.0 541.0 L 794.0 538.0 L 794.0 537.0 L 797.0 534.0 L 797.0 533.0 L 800.0 530.0 L 800.0 529.0 L 803.0 526.0 L 803.0 525.0 L 806.0 522.0 L 806.0 521.0 L 809.0 518.0 L 809.0 517.0 L 813.0 513.0 L 813.0 512.0 L 815.0 510.0 L 815.0 509.0 L 819.0 505.0 L 819.0 504.0 L 822.0 501.0 L 822.0 500.0 L 825.0 497.0 L 825.0 496.0 L 828.0 493.0 L 828.0 492.0 L 831.0 489.0 L 831.0 488.0 L 834.0 485.0 L 834.0 484.0 L 837.0 481.0 L 837.0 480.0 L 840.0 477.0 L 840.0 476.0 L 844.0 472.0 L 844.0 471.0 L 847.0 468.0 L 847.0 467.0 L 850.0 464.0 L 850.0 463.0 L 853.0 460.0 L 853.0 459.0 L 857.0 455.0 L 857.0 454.0 L 860.0 451.0 L 860.0 450.0 L 863.0 447.0 L 863.0 446.0 L 866.0 443.0 L 866.0 442.0 L 868.0 440.0 L 868.0 438.0 L 581.0 438.0 L 580.0 437.0 L 578.0 437.0 L 577.0 436.0 L 576.0 436.0 L 575.0 435.0 L 574.0 435.0 L 570.0 431.0 L 570.0 430.0 L 569.0 429.0 L 569.0 427.0 L 568.0 426.0 L 568.0 422.0 L 569.0 421.0 L 569.0 418.0 L 570.0 417.0 L 570.0 415.0 L 571.0 414.0 L 571.0 413.0 L 572.0 412.0 L 572.0 411.0 L 573.0 410.0 L 573.0 408.0 L 574.0 407.0 L 574.0 406.0 L 575.0 405.0 L 575.0 404.0 L 576.0 403.0 L 576.0 402.0 L 577.0 401.0 L 577.0 400.0 L 578.0 399.0 L 578.0 398.0 L 579.0 397.0 L 579.0 396.0 L 580.0 395.0 L 580.0 394.0 L 581.0 393.0 L 581.0 392.0 L 582.0 391.0 L 582.0 390.0 L 583.0 389.0 L 583.0 387.0 L 584.0 386.0 L 584.0 385.0 L 585.0 384.0 L 585.0 383.0 L 586.0 382.0 L 586.0 381.0 L 587.0 380.0 L 587.0 379.0 L 588.0 378.0 L 588.0 377.0 L 589.0 376.0 L 589.0 375.0 L 590.0 374.0 L 590.0 373.0 L 591.0 372.0 L 591.0 371.0 L 592.0 370.0 L 592.0 369.0 L 593.0 368.0 L 593.0 366.0 L 594.0 365.0 L 594.0 364.0 L 595.0 363.0 L 595.0 362.0 L 596.0 361.0 L 596.0 360.0 L 597.0 359.0 L 597.0 358.0 L 598.0 357.0 L 598.0 356.0 L 599.0 355.0 L 599.0 354.0 L 600.0 353.0 L 600.0 352.0 L 601.0 351.0 L 601.0 350.0 L 602.0 349.0 L 602.0 348.0 L 603.0 347.0 L 603.0 346.0 L 604.0 345.0 L 604.0 344.0 L 605.0 343.0 L 605.0 342.0 L 606.0 341.0 L 606.0 340.0 L 607.0 339.0 L 607.0 338.0 L 608.0 337.0 L 608.0 336.0 L 609.0 335.0 L 609.0 334.0 L 610.0 333.0 L 610.0 332.0 L 611.0 331.0 L 611.0 330.0 L 612.0 329.0 L 612.0 328.0 L 613.0 327.0 L 613.0 326.0 L 614.0 325.0 L 614.0 324.0 L 615.0 323.0 L 615.0 322.0 L 616.0 321.0 L 616.0 320.0 L 617.0 319.0 L 617.0 318.0 L 618.0 317.0 L 618.0 316.0 L 619.0 315.0 L 619.0 314.0 L 620.0 313.0 L 620.0 312.0 L 621.0 311.0 L 621.0 310.0 L 622.0 309.0 L 622.0 308.0 L 623.0 307.0 L 623.0 306.0 L 624.0 305.0 L 624.0 304.0 L 625.0 303.0 L 625.0 302.0 L 626.0 301.0 L 626.0 300.0 L 627.0 299.0 L 627.0 298.0 L 628.0 297.0 L 628.0 296.0 L 629.0 295.0 L 629.0 294.0 L 630.0 293.0 L 630.0 292.0 L 632.0 290.0 L 632.0 289.0 L 633.0 288.0 L 633.0 287.0 L 634.0 286.0 L 634.0 285.0 L 635.0 284.0 L 635.0 283.0 L 636.0 282.0 L 636.0 281.0 L 637.0 280.0 L 637.0 279.0 L 638.0 278.0 L 638.0 277.0 L 639.0 276.0 L 639.0 275.0 L 640.0 274.0 L 640.0 273.0 L 641.0 272.0 L 641.0 271.0 L 642.0 270.0 L 642.0 269.0 L 643.0 268.0 L 643.0 267.0 L 644.0 266.0 L 644.0 265.0 L 646.0 263.0 L 646.0 262.0 L 647.0 261.0 L 647.0 260.0 L 648.0 259.0 L 648.0 258.0 L 649.0 257.0 L 649.0 256.0 L 650.0 255.0 L 650.0 254.0 L 651.0 253.0 L 651.0 252.0 L 652.0 251.0 L 652.0 250.0 L 653.0 249.0 L 653.0 248.0 L 654.0 247.0 L 654.0 246.0 L 655.0 245.0 L 655.0 244.0 L 656.0 243.0 L 656.0 242.0 L 657.0 241.0 L 657.0 240.0 L 658.0 239.0 L 658.0 238.0 L 660.0 236.0 L 660.0 235.0 L 661.0 234.0 L 661.0 233.0 L 662.0 232.0 L 662.0 231.0 L 663.0 230.0 L 663.0 229.0 L 664.0 228.0 L 664.0 227.0 L 665.0 226.0 L 665.0 225.0 L 666.0 224.0 L 666.0 223.0 L 667.0 222.0 L 667.0 221.0 L 669.0 219.0 L 669.0 218.0 L 670.0 217.0 L 670.0 216.0 L 671.0 215.0 L 671.0 214.0 L 672.0 213.0 L 672.0 212.0 L 673.0 211.0 L 673.0 210.0 L 674.0 209.0 L 674.0 208.0 L 675.0 207.0 L 675.0 206.0 L 676.0 205.0 L 676.0 204.0 L 678.0 202.0 L 678.0 201.0 L 679.0 200.0 L 679.0 199.0 L 680.0 198.0 L 680.0 197.0 L 681.0 196.0 L 681.0 195.0 L 682.0 194.0 L 682.0 193.0 L 683.0 192.0 L 683.0 191.0 L 684.0 190.0 L 684.0 189.0 L 686.0 187.0 L 686.0 186.0 L 687.0 185.0 L 687.0 184.0 L 688.0 183.0 L 688.0 182.0 L 689.0 181.0 L 689.0 180.0 L 690.0 179.0 L 690.0 178.0 L 691.0 177.0 L 691.0 176.0 L 692.0 175.0 L 692.0 174.0 L 693.0 173.0 L 693.0 172.0 L 695.0 170.0 L 695.0 169.0 L 696.0 168.0 L 696.0 167.0 L 697.0 166.0 L 697.0 165.0 L 698.0 164.0 L 698.0 163.0 L 699.0 162.0 L 699.0 161.0 L 700.0 160.0 L 700.0 159.0 L 701.0 158.0 L 701.0 157.0 L 702.0 156.0 L 702.0 155.0 L 704.0 153.0 L 704.0 152.0 L 705.0 151.0 L 705.0 150.0 L 706.0 149.0 L 706.0 148.0 L 707.0 147.0 L 707.0 146.0 L 708.0 145.0 L 708.0 144.0 L 709.0 143.0 L 709.0 142.0 L 710.0 141.0 L 710.0 140.0 L 712.0 138.0 L 712.0 137.0 L 713.0 136.0 L 713.0 135.0 L 714.0 134.0 L 714.0 133.0 L 715.0 132.0 L 715.0 131.0 L 716.0 130.0 L 716.0 129.0 L 718.0 127.0 L 718.0 126.0 L 719.0 125.0 L 719.0 124.0 L 720.0 123.0 L 720.0 122.0 L 721.0 121.0 L 721.0 120.0 L 722.0 119.0 L 722.0 118.0 L 723.0 117.0 L 723.0 116.0 L 724.0 115.0 L 724.0 114.0 L 726.0 112.0 L 726.0 111.0 L 727.0 110.0 L 727.0 109.0 L 728.0 108.0 L 728.0 107.0 L 729.0 106.0 L 729.0 105.0 L 730.0 104.0 L 730.0 103.0 L 731.0 102.0 L 731.0 101.0 L 732.0 100.0 L 732.0 99.0 L 734.0 97.0 L 734.0 96.0 L 735.0 95.0 L 735.0 94.0 L 736.0 93.0 L 736.0 92.0 L 737.0 91.0 L 737.0 90.0 L 738.0 89.0 L 738.0 88.0 L 739.0 87.0 L 739.0 86.0 L 741.0 84.0 L 741.0 83.0 L 742.0 82.0 L 742.0 81.0 L 743.0 80.0 L 743.0 79.0 L 744.0 78.0 L 744.0 77.0 L 745.0 76.0 L 745.0 75.0 L 747.0 73.0 L 747.0 72.0 L 748.0 71.0 L 748.0 70.0 L 749.0 69.0 L 749.0 68.0 L 750.0 67.0 L 750.0 66.0 L 751.0 65.0 L 751.0 64.0 L 753.0 62.0 L 753.0 61.0 L 754.0 60.0 L 754.0 59.0 L 755.0 58.0 L 755.0 57.0 L 756.0 56.0 L 756.0 55.0 L 757.0 54.0 L 757.0 53.0 L 759.0 51.0 L 759.0 50.0 L 760.0 49.0 L 760.0 48.0 L 761.0 47.0 L 761.0 46.0 L 762.0 45.0 L 762.0 44.0 L 763.0 43.0 Z"/>
    <path d="M 553.0 40.0 L 305.0 40.0 L 305.0 41.0 L 304.0 42.0 L 304.0 43.0 L 303.0 44.0 L 303.0 45.0 L 301.0 47.0 L 301.0 48.0 L 300.0 49.0 L 300.0 50.0 L 299.0 51.0 L 299.0 52.0 L 298.0 53.0 L 298.0 54.0 L 296.0 56.0 L 296.0 57.0 L 295.0 58.0 L 295.0 59.0 L 294.0 60.0 L 294.0 61.0 L 292.0 63.0 L 292.0 64.0 L 291.0 65.0 L 291.0 66.0 L 290.0 67.0 L 290.0 68.0 L 289.0 69.0 L 289.0 70.0 L 288.0 71.0 L 288.0 72.0 L 287.0 73.0 L 287.0 74.0 L 285.0 76.0 L 285.0 77.0 L 284.0 78.0 L 284.0 79.0 L 283.0 80.0 L 283.0 81.0 L 282.0 82.0 L 282.0 83.0 L 280.0 85.0 L 280.0 86.0 L 279.0 87.0 L 279.0 88.0 L 278.0 89.0 L 278.0 90.0 L 277.0 91.0 L 277.0 92.0 L 275.0 94.0 L 275.0 95.0 L 274.0 96.0 L 274.0 97.0 L 273.0 98.0 L 273.0 99.0 L 272.0 100.0 L 272.0 101.0 L 270.0 103.0 L 270.0 104.0 L 269.0 105.0 L 269.0 106.0 L 268.0 107.0 L 268.0 108.0 L 267.0 109.0 L 267.0 110.0 L 265.0 112.0 L 265.0 113.0 L 264.0 114.0 L 264.0 115.0 L 263.0 116.0 L 263.0 117.0 L 262.0 118.0 L 262.0 119.0 L 260.0 121.0 L 260.0 122.0 L 259.0 123.0 L 259.0 124.0 L 258.0 125.0 L 258.0 126.0 L 257.0 127.0 L 257.0 128.0 L 255.0 130.0 L 255.0 131.0 L 254.0 132.0 L 254.0 133.0 L 253.0 134.0 L 253.0 135.0 L 251.0 137.0 L 251.0 138.0 L 250.0 139.0 L 250.0 140.0 L 249.0 141.0 L 249.0 142.0 L 248.0 143.0 L 248.0 144.0 L 247.0 145.0 L 247.0 146.0 L 246.0 147.0 L 246.0 150.0 L 386.0 150.0 L 387.0 151.0 L 387.0 153.0 L 386.0 154.0 L 386.0 155.0 L 385.0 156.0 L 385.0 157.0 L 384.0 158.0 L 384.0 159.0 L 383.0 160.0 L 383.0 161.0 L 382.0 162.0 L 382.0 163.0 L 381.0 164.0 L 381.0 165.0 L 380.0 166.0 L 380.0 167.0 L 379.0 168.0 L 379.0 169.0 L 378.0 170.0 L 378.0 171.0 L 377.0 172.0 L 377.0 173.0 L 376.0 174.0 L 376.0 175.0 L 375.0 176.0 L 375.0 177.0 L 374.0 178.0 L 374.0 179.0 L 373.0 180.0 L 373.0 181.0 L 372.0 182.0 L 372.0 183.0 L 371.0 184.0 L 371.0 185.0 L 370.0 186.0 L 370.0 187.0 L 369.0 188.0 L 369.0 189.0 L 368.0 190.0 L 368.0 191.0 L 367.0 192.0 L 367.0 193.0 L 366.0 194.0 L 366.0 195.0 L 365.0 196.0 L 365.0 197.0 L 364.0 198.0 L 364.0 199.0 L 363.0 200.0 L 363.0 201.0 L 362.0 202.0 L 362.0 203.0 L 361.0 204.0 L 361.0 205.0 L 360.0 206.0 L 360.0 207.0 L 359.0 208.0 L 359.0 209.0 L 358.0 210.0 L 358.0 211.0 L 357.0 212.0 L 357.0 213.0 L 356.0 214.0 L 356.0 215.0 L 355.0 216.0 L 355.0 217.0 L 354.0 218.0 L 354.0 219.0 L 353.0 220.0 L 353.0 221.0 L 352.0 222.0 L 352.0 223.0 L 351.0 224.0 L 351.0 225.0 L 350.0 226.0 L 350.0 227.0 L 349.0 228.0 L 349.0 229.0 L 348.0 230.0 L 348.0 231.0 L 347.0 232.0 L 347.0 233.0 L 346.0 234.0 L 346.0 235.0 L 345.0 236.0 L 345.0 238.0 L 344.0 239.0 L 344.0 240.0 L 343.0 241.0 L 343.0 242.0 L 342.0 243.0 L 342.0 244.0 L 341.0 245.0 L 341.0 246.0 L 340.0 247.0 L 340.0 248.0 L 339.0 249.0 L 339.0 250.0 L 338.0 251.0 L 338.0 252.0 L 337.0 253.0 L 337.0 254.0 L 336.0 255.0 L 336.0 256.0 L 335.0 257.0 L 335.0 258.0 L 334.0 259.0 L 334.0 260.0 L 333.0 261.0 L 333.0 262.0 L 332.0 263.0 L 332.0 264.0 L 331.0 265.0 L 331.0 266.0 L 330.0 267.0 L 330.0 268.0 L 329.0 269.0 L 329.0 270.0 L 328.0 271.0 L 328.0 272.0 L 327.0 273.0 L 327.0 274.0 L 326.0 275.0 L 326.0 276.0 L 325.0 277.0 L 325.0 278.0 L 324.0 279.0 L 324.0 280.0 L 323.0 281.0 L 323.0 282.0 L 322.0 283.0 L 322.0 284.0 L 321.0 285.0 L 321.0 286.0 L 320.0 287.0 L 320.0 288.0 L 319.0 289.0 L 319.0 290.0 L 318.0 291.0 L 318.0 292.0 L 317.0 293.0 L 317.0 294.0 L 316.0 295.0 L 316.0 297.0 L 314.0 299.0 L 314.0 301.0 L 312.0 303.0 L 312.0 305.0 L 311.0 306.0 L 311.0 307.0 L 310.0 308.0 L 310.0 309.0 L 309.0 310.0 L 309.0 311.0 L 308.0 312.0 L 308.0 313.0 L 307.0 314.0 L 307.0 315.0 L 306.0 316.0 L 306.0 317.0 L 305.0 318.0 L 305.0 319.0 L 304.0 320.0 L 304.0 321.0 L 303.0 322.0 L 303.0 323.0 L 302.0 324.0 L 302.0 325.0 L 301.0 326.0 L 301.0 327.0 L 300.0 328.0 L 300.0 329.0 L 299.0 330.0 L 299.0 331.0 L 298.0 332.0 L 298.0 333.0 L 297.0 334.0 L 297.0 335.0 L 296.0 336.0 L 296.0 337.0 L 295.0 338.0 L 295.0 339.0 L 294.0 340.0 L 294.0 341.0 L 293.0 342.0 L 293.0 343.0 L 292.0 344.0 L 292.0 345.0 L 291.0 346.0 L 291.0 347.0 L 290.0 348.0 L 290.0 350.0 L 289.0 351.0 L 289.0 352.0 L 288.0 353.0 L 288.0 354.0 L 287.0 355.0 L 287.0 356.0 L 286.0 357.0 L 286.0 358.0 L 285.0 359.0 L 285.0 360.0 L 284.0 361.0 L 284.0 362.0 L 283.0 363.0 L 283.0 364.0 L 282.0 365.0 L 282.0 366.0 L 281.0 367.0 L 281.0 368.0 L 280.0 369.0 L 280.0 370.0 L 279.0 371.0 L 279.0 372.0 L 278.0 373.0 L 278.0 374.0 L 277.0 375.0 L 277.0 376.0 L 276.0 377.0 L 276.0 378.0 L 275.0 379.0 L 275.0 380.0 L 274.0 381.0 L 274.0 382.0 L 273.0 383.0 L 273.0 384.0 L 272.0 385.0 L 272.0 387.0 L 270.0 389.0 L 270.0 390.0 L 269.0 391.0 L 269.0 392.0 L 268.0 393.0 L 268.0 394.0 L 266.0 396.0 L 266.0 397.0 L 264.0 399.0 L 264.0 400.0 L 262.0 402.0 L 262.0 403.0 L 258.0 407.0 L 258.0 408.0 L 246.0 420.0 L 245.0 420.0 L 241.0 424.0 L 240.0 424.0 L 238.0 426.0 L 237.0 426.0 L 235.0 428.0 L 234.0 428.0 L 233.0 429.0 L 232.0 429.0 L 231.0 430.0 L 230.0 430.0 L 229.0 431.0 L 228.0 431.0 L 227.0 432.0 L 226.0 432.0 L 225.0 433.0 L 224.0 433.0 L 223.0 434.0 L 221.0 434.0 L 220.0 435.0 L 218.0 435.0 L 217.0 436.0 L 214.0 436.0 L 213.0 437.0 L 209.0 437.0 L 208.0 438.0 L 176.0 438.0 L 175.0 439.0 L 95.0 439.0 L 95.0 440.0 L 94.0 441.0 L 94.0 442.0 L 93.0 443.0 L 93.0 444.0 L 92.0 445.0 L 92.0 446.0 L 90.0 448.0 L 90.0 449.0 L 89.0 450.0 L 89.0 451.0 L 88.0 452.0 L 88.0 453.0 L 87.0 454.0 L 87.0 455.0 L 86.0 456.0 L 86.0 457.0 L 85.0 458.0 L 85.0 459.0 L 84.0 460.0 L 84.0 461.0 L 83.0 462.0 L 83.0 463.0 L 82.0 464.0 L 82.0 465.0 L 81.0 466.0 L 81.0 467.0 L 80.0 468.0 L 80.0 469.0 L 79.0 470.0 L 79.0 471.0 L 78.0 472.0 L 78.0 473.0 L 77.0 474.0 L 77.0 475.0 L 75.0 477.0 L 75.0 478.0 L 74.0 479.0 L 74.0 480.0 L 73.0 481.0 L 73.0 482.0 L 72.0 483.0 L 72.0 484.0 L 71.0 485.0 L 71.0 486.0 L 70.0 487.0 L 70.0 488.0 L 69.0 489.0 L 69.0 490.0 L 68.0 491.0 L 68.0 492.0 L 67.0 493.0 L 67.0 494.0 L 66.0 495.0 L 66.0 496.0 L 65.0 497.0 L 65.0 498.0 L 64.0 499.0 L 64.0 500.0 L 62.0 502.0 L 62.0 503.0 L 61.0 504.0 L 61.0 505.0 L 60.0 506.0 L 60.0 507.0 L 59.0 508.0 L 59.0 509.0 L 58.0 510.0 L 58.0 511.0 L 57.0 512.0 L 57.0 513.0 L 56.0 514.0 L 56.0 515.0 L 55.0 516.0 L 55.0 517.0 L 54.0 518.0 L 54.0 519.0 L 53.0 520.0 L 53.0 521.0 L 52.0 522.0 L 52.0 523.0 L 50.0 525.0 L 50.0 526.0 L 49.0 527.0 L 49.0 528.0 L 48.0 529.0 L 48.0 530.0 L 47.0 531.0 L 47.0 532.0 L 46.0 533.0 L 46.0 534.0 L 45.0 535.0 L 45.0 536.0 L 44.0 537.0 L 44.0 538.0 L 43.0 539.0 L 43.0 540.0 L 42.0 541.0 L 42.0 542.0 L 41.0 543.0 L 41.0 544.0 L 40.0 545.0 L 40.0 548.0 L 238.0 548.0 L 239.0 547.0 L 245.0 547.0 L 246.0 546.0 L 250.0 546.0 L 251.0 545.0 L 255.0 545.0 L 256.0 544.0 L 258.0 544.0 L 259.0 543.0 L 262.0 543.0 L 263.0 542.0 L 265.0 542.0 L 266.0 541.0 L 267.0 541.0 L 268.0 540.0 L 270.0 540.0 L 271.0 539.0 L 273.0 539.0 L 274.0 538.0 L 275.0 538.0 L 276.0 537.0 L 277.0 537.0 L 278.0 536.0 L 279.0 536.0 L 280.0 535.0 L 281.0 535.0 L 282.0 534.0 L 283.0 534.0 L 284.0 533.0 L 285.0 533.0 L 286.0 532.0 L 287.0 532.0 L 288.0 531.0 L 289.0 531.0 L 291.0 529.0 L 292.0 529.0 L 293.0 528.0 L 294.0 528.0 L 296.0 526.0 L 297.0 526.0 L 300.0 523.0 L 301.0 523.0 L 303.0 521.0 L 304.0 521.0 L 308.0 517.0 L 309.0 517.0 L 327.0 499.0 L 327.0 498.0 L 331.0 494.0 L 331.0 493.0 L 334.0 490.0 L 334.0 489.0 L 336.0 487.0 L 336.0 486.0 L 338.0 484.0 L 338.0 483.0 L 340.0 481.0 L 340.0 480.0 L 342.0 478.0 L 342.0 477.0 L 343.0 476.0 L 343.0 475.0 L 344.0 474.0 L 344.0 473.0 L 345.0 472.0 L 345.0 471.0 L 346.0 470.0 L 346.0 469.0 L 347.0 468.0 L 347.0 467.0 L 348.0 466.0 L 348.0 465.0 L 349.0 464.0 L 349.0 463.0 L 350.0 462.0 L 350.0 461.0 L 351.0 460.0 L 351.0 459.0 L 352.0 458.0 L 352.0 457.0 L 353.0 456.0 L 353.0 455.0 L 354.0 454.0 L 354.0 453.0 L 355.0 452.0 L 355.0 451.0 L 356.0 450.0 L 356.0 449.0 L 357.0 448.0 L 357.0 446.0 L 358.0 445.0 L 358.0 444.0 L 359.0 443.0 L 359.0 442.0 L 360.0 441.0 L 360.0 440.0 L 361.0 439.0 L 361.0 438.0 L 362.0 437.0 L 362.0 436.0 L 363.0 435.0 L 363.0 434.0 L 364.0 433.0 L 364.0 432.0 L 365.0 431.0 L 365.0 430.0 L 366.0 429.0 L 366.0 428.0 L 367.0 427.0 L 367.0 426.0 L 368.0 425.0 L 368.0 424.0 L 369.0 423.0 L 369.0 422.0 L 370.0 421.0 L 370.0 420.0 L 371.0 419.0 L 371.0 418.0 L 372.0 417.0 L 372.0 416.0 L 373.0 415.0 L 373.0 414.0 L 374.0 413.0 L 374.0 411.0 L 375.0 410.0 L 375.0 409.0 L 376.0 408.0 L 376.0 407.0 L 377.0 406.0 L 377.0 405.0 L 378.0 404.0 L 378.0 403.0 L 379.0 402.0 L 379.0 401.0 L 380.0 400.0 L 380.0 399.0 L 381.0 398.0 L 381.0 397.0 L 382.0 396.0 L 382.0 395.0 L 383.0 394.0 L 383.0 393.0 L 384.0 392.0 L 384.0 391.0 L 385.0 390.0 L 385.0 389.0 L 386.0 388.0 L 386.0 387.0 L 387.0 386.0 L 387.0 385.0 L 388.0 384.0 L 388.0 382.0 L 389.0 381.0 L 389.0 380.0 L 390.0 379.0 L 390.0 378.0 L 391.0 377.0 L 391.0 376.0 L 392.0 375.0 L 392.0 374.0 L 393.0 373.0 L 393.0 372.0 L 394.0 371.0 L 394.0 370.0 L 395.0 369.0 L 395.0 368.0 L 396.0 367.0 L 396.0 366.0 L 397.0 365.0 L 397.0 364.0 L 398.0 363.0 L 398.0 362.0 L 399.0 361.0 L 399.0 360.0 L 400.0 359.0 L 400.0 358.0 L 401.0 357.0 L 401.0 355.0 L 402.0 354.0 L 402.0 353.0 L 403.0 352.0 L 403.0 351.0 L 404.0 350.0 L 404.0 349.0 L 405.0 348.0 L 405.0 347.0 L 406.0 346.0 L 406.0 345.0 L 407.0 344.0 L 407.0 343.0 L 408.0 342.0 L 408.0 341.0 L 409.0 340.0 L 409.0 339.0 L 410.0 338.0 L 410.0 337.0 L 411.0 336.0 L 411.0 335.0 L 412.0 334.0 L 412.0 333.0 L 413.0 332.0 L 413.0 331.0 L 414.0 330.0 L 414.0 329.0 L 415.0 328.0 L 415.0 327.0 L 416.0 326.0 L 416.0 325.0 L 417.0 324.0 L 417.0 323.0 L 418.0 322.0 L 418.0 321.0 L 419.0 320.0 L 419.0 318.0 L 420.0 317.0 L 420.0 316.0 L 421.0 315.0 L 421.0 314.0 L 422.0 313.0 L 422.0 312.0 L 423.0 311.0 L 423.0 310.0 L 424.0 309.0 L 424.0 308.0 L 425.0 307.0 L 425.0 306.0 L 426.0 305.0 L 426.0 304.0 L 427.0 303.0 L 427.0 302.0 L 428.0 301.0 L 428.0 300.0 L 429.0 299.0 L 429.0 298.0 L 430.0 297.0 L 430.0 296.0 L 431.0 295.0 L 431.0 294.0 L 432.0 293.0 L 432.0 292.0 L 433.0 291.0 L 433.0 290.0 L 434.0 289.0 L 434.0 288.0 L 435.0 287.0 L 435.0 286.0 L 436.0 285.0 L 436.0 284.0 L 437.0 283.0 L 437.0 281.0 L 438.0 280.0 L 438.0 279.0 L 439.0 278.0 L 439.0 277.0 L 440.0 276.0 L 440.0 275.0 L 441.0 274.0 L 441.0 273.0 L 442.0 272.0 L 442.0 271.0 L 443.0 270.0 L 443.0 269.0 L 444.0 268.0 L 444.0 267.0 L 445.0 266.0 L 445.0 265.0 L 446.0 264.0 L 446.0 263.0 L 447.0 262.0 L 447.0 261.0 L 448.0 260.0 L 448.0 259.0 L 449.0 258.0 L 449.0 257.0 L 450.0 256.0 L 450.0 255.0 L 451.0 254.0 L 451.0 253.0 L 452.0 252.0 L 452.0 251.0 L 453.0 250.0 L 453.0 249.0 L 454.0 248.0 L 454.0 247.0 L 455.0 246.0 L 455.0 244.0 L 456.0 243.0 L 456.0 242.0 L 457.0 241.0 L 457.0 240.0 L 458.0 239.0 L 458.0 238.0 L 459.0 237.0 L 459.0 236.0 L 460.0 235.0 L 460.0 234.0 L 461.0 233.0 L 461.0 232.0 L 462.0 231.0 L 462.0 230.0 L 463.0 229.0 L 463.0 228.0 L 464.0 227.0 L 464.0 226.0 L 465.0 225.0 L 465.0 224.0 L 466.0 223.0 L 466.0 222.0 L 467.0 221.0 L 467.0 220.0 L 468.0 219.0 L 468.0 218.0 L 469.0 217.0 L 469.0 215.0 L 470.0 214.0 L 470.0 213.0 L 471.0 212.0 L 471.0 211.0 L 472.0 210.0 L 472.0 209.0 L 473.0 208.0 L 473.0 207.0 L 474.0 206.0 L 474.0 205.0 L 475.0 204.0 L 475.0 203.0 L 476.0 202.0 L 476.0 201.0 L 477.0 200.0 L 477.0 199.0 L 478.0 198.0 L 478.0 197.0 L 479.0 196.0 L 479.0 195.0 L 480.0 194.0 L 480.0 193.0 L 481.0 192.0 L 481.0 191.0 L 482.0 190.0 L 482.0 189.0 L 483.0 188.0 L 483.0 187.0 L 484.0 186.0 L 484.0 185.0 L 485.0 184.0 L 485.0 182.0 L 486.0 181.0 L 486.0 180.0 L 487.0 179.0 L 487.0 178.0 L 488.0 177.0 L 488.0 176.0 L 489.0 175.0 L 489.0 174.0 L 490.0 173.0 L 490.0 172.0 L 491.0 171.0 L 491.0 170.0 L 492.0 169.0 L 492.0 168.0 L 493.0 167.0 L 493.0 166.0 L 494.0 165.0 L 494.0 164.0 L 495.0 163.0 L 495.0 162.0 L 496.0 161.0 L 496.0 160.0 L 497.0 159.0 L 497.0 158.0 L 498.0 157.0 L 498.0 156.0 L 499.0 155.0 L 499.0 154.0 L 500.0 153.0 L 500.0 152.0 L 501.0 151.0 L 501.0 150.0 L 502.0 149.0 L 502.0 147.0 L 503.0 146.0 L 503.0 145.0 L 504.0 144.0 L 504.0 143.0 L 505.0 142.0 L 505.0 141.0 L 506.0 140.0 L 506.0 139.0 L 507.0 138.0 L 507.0 137.0 L 508.0 136.0 L 508.0 135.0 L 509.0 134.0 L 509.0 133.0 L 510.0 132.0 L 510.0 131.0 L 511.0 130.0 L 511.0 129.0 L 512.0 128.0 L 512.0 127.0 L 513.0 126.0 L 513.0 125.0 L 514.0 124.0 L 514.0 123.0 L 515.0 122.0 L 515.0 121.0 L 516.0 120.0 L 516.0 118.0 L 517.0 117.0 L 517.0 116.0 L 518.0 115.0 L 518.0 114.0 L 519.0 113.0 L 519.0 112.0 L 520.0 111.0 L 520.0 110.0 L 521.0 109.0 L 521.0 108.0 L 522.0 107.0 L 522.0 106.0 L 523.0 105.0 L 523.0 104.0 L 524.0 103.0 L 524.0 102.0 L 525.0 101.0 L 525.0 100.0 L 526.0 99.0 L 526.0 98.0 L 527.0 97.0 L 527.0 96.0 L 528.0 95.0 L 528.0 94.0 L 529.0 93.0 L 529.0 92.0 L 530.0 91.0 L 530.0 90.0 L 531.0 89.0 L 531.0 88.0 L 532.0 87.0 L 532.0 85.0 L 533.0 84.0 L 533.0 83.0 L 534.0 82.0 L 534.0 81.0 L 535.0 80.0 L 535.0 79.0 L 536.0 78.0 L 536.0 77.0 L 537.0 76.0 L 537.0 75.0 L 538.0 74.0 L 538.0 73.0 L 539.0 72.0 L 539.0 71.0 L 540.0 70.0 L 540.0 69.0 L 541.0 68.0 L 541.0 67.0 L 542.0 66.0 L 542.0 65.0 L 543.0 64.0 L 543.0 63.0 L 544.0 62.0 L 544.0 61.0 L 545.0 60.0 L 545.0 58.0 L 546.0 57.0 L 546.0 56.0 L 547.0 55.0 L 547.0 54.0 L 548.0 53.0 L 548.0 52.0 L 549.0 51.0 L 549.0 50.0 L 550.0 49.0 L 550.0 48.0 L 551.0 47.0 L 551.0 46.0 L 552.0 45.0 L 552.0 44.0 L 553.0 43.0 Z"/>
  </g>
</svg>
