<?xml version="1.0" encoding="UTF-8"?>
<svg xmlns="http://www.w3.org/2000/svg" viewBox="0 0 1254.0 1254.0" role="img" aria-label="JL monogram vector logo">
  <title>JL Monogram Logo</title>
  <g fill="#0b0b0b" fill-rule="evenodd">
    <path d="M 925.0 350.0 L 802.0 350.0 L 801.0 351.0 L 797.0 351.0 L 796.0 352.0 L 794.0 352.0 L 793.0 353.0 L 792.0 353.0 L 791.0 354.0 L 790.0 354.0 L 789.0 355.0 L 788.0 355.0 L 786.0 357.0 L 785.0 357.0 L 782.0 360.0 L 781.0 360.0 L 776.0 365.0 L 776.0 366.0 L 773.0 369.0 L 773.0 370.0 L 771.0 372.0 L 771.0 373.0 L 769.0 375.0 L 769.0 376.0 L 768.0 377.0 L 768.0 378.0 L 766.0 380.0 L 766.0 381.0 L 765.0 382.0 L 765.0 383.0 L 764.0 384.0 L 764.0 385.0 L 763.0 386.0 L 763.0 387.0 L 762.0 388.0 L 762.0 389.0 L 761.0 390.0 L 761.0 391.0 L 760.0 392.0 L 760.0 393.0 L 759.0 394.0 L 759.0 395.0 L 758.0 396.0 L 758.0 397.0 L 757.0 398.0 L 757.0 399.0 L 756.0 400.0 L 756.0 401.0 L 755.0 402.0 L 755.0 403.0 L 754.0 404.0 L 754.0 405.0 L 753.0 406.0 L 753.0 407.0 L 752.0 408.0 L 752.0 409.0 L 750.0 411.0 L 750.0 412.0 L 749.0 413.0 L 749.0 414.0 L 748.0 415.0 L 748.0 416.0 L 747.0 417.0 L 747.0 419.0 L 746.0 420.0 L 746.0 421.0 L 745.0 422.0 L 745.0 423.0 L 743.0 425.0 L 743.0 426.0 L 742.0 427.0 L 742.0 428.0 L 741.0 429.0 L 741.0 430.0 L 740.0 431.0 L 740.0 432.0 L 739.0 433.0 L 739.0 435.0 L 738.0 436.0 L 738.0 437.0 L 737.0 438.0 L 737.0 439.0 L 736.0 440.0 L 736.0 441.0 L 735.0 442.0 L 735.0 443.0 L 734.0 444.0 L 734.0 445.0 L 733.0 446.0 L 733.0 447.0 L 732.0 448.0 L 732.0 449.0 L 731.0 450.0 L 731.0 451.0 L 730.0 452.0 L 730.0 453.0 L 729.0 454.0 L 729.0 455.0 L 728.0 456.0 L 728.0 457.0 L 727.0 458.0 L 727.0 459.0 L 726.0 460.0 L 726.0 461.0 L 725.0 462.0 L 725.0 463.0 L 724.0 464.0 L 724.0 465.0 L 723.0 466.0 L 723.0 467.0 L 722.0 468.0 L 722.0 469.0 L 721.0 470.0 L 721.0 471.0 L 720.0 472.0 L 720.0 473.0 L 719.0 474.0 L 719.0 475.0 L 718.0 476.0 L 718.0 477.0 L 717.0 478.0 L 717.0 479.0 L 716.0 480.0 L 716.0 482.0 L 715.0 483.0 L 715.0 484.0 L 714.0 485.0 L 714.0 486.0 L 713.0 487.0 L 713.0 488.0 L 712.0 489.0 L 712.0 490.0 L 711.0 491.0 L 711.0 492.0 L 710.0 493.0 L 710.0 494.0 L 709.0 495.0 L 709.0 496.0 L 708.0 497.0 L 708.0 498.0 L 707.0 499.0 L 707.0 500.0 L 706.0 501.0 L 706.0 502.0 L 705.0 503.0 L 705.0 504.0 L 704.0 505.0 L 704.0 506.0 L 703.0 507.0 L 703.0 508.0 L 702.0 509.0 L 702.0 510.0 L 701.0 511.0 L 701.0 512.0 L 700.0 513.0 L 700.0 514.0 L 699.0 515.0 L 699.0 516.0 L 698.0 517.0 L 698.0 519.0 L 697.0 520.0 L 697.0 521.0 L 696.0 522.0 L 696.0 523.0 L 695.0 524.0 L 695.0 525.0 L 694.0 526.0 L 694.0 527.0 L 693.0 528.0 L 693.0 529.0 L 692.0 530.0 L 692.0 531.0 L 691.0 532.0 L 691.0 533.0 L 690.0 534.0 L 690.0 535.0 L 689.0 536.0 L 689.0 537.0 L 688.0 538.0 L 688.0 539.0 L 687.0 540.0 L 687.0 541.0 L 686.0 542.0 L 686.0 543.0 L 685.0 544.0 L 685.0 545.0 L 684.0 546.0 L 684.0 547.0 L 683.0 548.0 L 683.0 549.0 L 682.0 550.0 L 682.0 551.0 L 681.0 552.0 L 681.0 554.0 L 679.0 556.0 L 679.0 558.0 L 678.0 559.0 L 678.0 560.0 L 677.0 561.0 L 677.0 562.0 L 676.0 563.0 L 676.0 564.0 L 675.0 565.0 L 675.0 566.0 L 674.0 567.0 L 674.0 568.0 L 673.0 569.0 L 673.0 570.0 L 672.0 571.0 L 672.0 572.0 L 671.0 573.0 L 671.0 574.0 L 670.0 575.0 L 670.0 576.0 L 669.0 577.0 L 669.0 578.0 L 668.0 579.0 L 668.0 580.0 L 667.0 581.0 L 667.0 583.0 L 666.0 584.0 L 666.0 585.0 L 665.0 586.0 L 665.0 587.0 L 664.0 588.0 L 664.0 589.0 L 663.0 590.0 L 663.0 591.0 L 662.0 592.0 L 662.0 593.0 L 661.0 594.0 L 661.0 595.0 L 660.0 596.0 L 660.0 597.0 L 659.0 598.0 L 659.0 599.0 L 658.0 600.0 L 658.0 601.0 L 657.0 602.0 L 657.0 603.0 L 656.0 604.0 L 656.0 605.0 L 655.0 606.0 L 655.0 607.0 L 654.0 608.0 L 654.0 609.0 L 653.0 610.0 L 653.0 612.0 L 652.0 613.0 L 652.0 614.0 L 651.0 615.0 L 651.0 616.0 L 650.0 617.0 L 650.0 618.0 L 649.0 619.0 L 649.0 620.0 L 648.0 621.0 L 648.0 622.0 L 647.0 623.0 L 647.0 624.0 L 646.0 625.0 L 646.0 626.0 L 645.0 627.0 L 645.0 628.0 L 644.0 629.0 L 644.0 630.0 L 643.0 631.0 L 643.0 633.0 L 642.0 634.0 L 642.0 635.0 L 641.0 636.0 L 641.0 637.0 L 640.0 638.0 L 640.0 639.0 L 639.0 640.0 L 639.0 641.0 L 638.0 642.0 L 638.0 643.0 L 637.0 644.0 L 637.0 645.0 L 636.0 646.0 L 636.0 647.0 L 635.0 648.0 L 635.0 649.0 L 634.0 650.0 L 634.0 651.0 L 633.0 652.0 L 633.0 653.0 L 632.0 654.0 L 632.0 655.0 L 631.0 656.0 L 631.0 657.0 L 630.0 658.0 L 630.0 660.0 L 629.0 661.0 L 629.0 662.0 L 628.0 663.0 L 628.0 664.0 L 627.0 665.0 L 627.0 666.0 L 626.0 667.0 L 626.0 668.0 L 625.0 669.0 L 625.0 670.0 L 624.0 671.0 L 624.0 672.0 L 623.0 673.0 L 623.0 674.0 L 622.0 675.0 L 622.0 676.0 L 621.0 677.0 L 621.0 678.0 L 620.0 679.0 L 620.0 681.0 L 619.0 682.0 L 619.0 683.0 L 618.0 684.0 L 618.0 685.0 L 617.0 686.0 L 617.0 687.0 L 616.0 688.0 L 616.0 689.0 L 615.0 690.0 L 615.0 691.0 L 614.0 692.0 L 614.0 693.0 L 613.0 694.0 L 613.0 695.0 L 612.0 696.0 L 612.0 697.0 L 611.0 698.0 L 611.0 699.0 L 610.0 700.0 L 610.0 702.0 L 609.0 703.0 L 609.0 704.0 L 608.0 705.0 L 608.0 706.0 L 607.0 707.0 L 607.0 708.0 L 606.0 709.0 L 606.0 710.0 L 605.0 711.0 L 605.0 712.0 L 604.0 713.0 L 604.0 714.0 L 603.0 715.0 L 603.0 716.0 L 602.0 717.0 L 602.0 718.0 L 601.0 719.0 L 601.0 720.0 L 600.0 721.0 L 600.0 722.0 L 599.0 723.0 L 599.0 725.0 L 598.0 726.0 L 598.0 727.0 L 597.0 728.0 L 597.0 729.0 L 596.0 730.0 L 596.0 731.0 L 595.0 732.0 L 595.0 733.0 L 594.0 734.0 L 594.0 735.0 L 593.0 736.0 L 593.0 737.0 L 592.0 738.0 L 592.0 739.0 L 591.0 740.0 L 591.0 741.0 L 590.0 742.0 L 590.0 743.0 L 589.0 744.0 L 589.0 745.0 L 588.0 746.0 L 588.0 747.0 L 587.0 748.0 L 587.0 750.0 L 586.0 751.0 L 586.0 752.0 L 585.0 753.0 L 585.0 754.0 L 584.0 755.0 L 584.0 756.0 L 583.0 757.0 L 583.0 758.0 L 582.0 759.0 L 582.0 760.0 L 581.0 761.0 L 581.0 762.0 L 580.0 763.0 L 580.0 764.0 L 579.0 765.0 L 579.0 766.0 L 578.0 767.0 L 578.0 768.0 L 577.0 769.0 L 577.0 770.0 L 576.0 771.0 L 576.0 772.0 L 575.0 773.0 L 575.0 775.0 L 574.0 776.0 L 574.0 777.0 L 573.0 778.0 L 573.0 779.0 L 572.0 780.0 L 572.0 781.0 L 571.0 782.0 L 571.0 783.0 L 570.0 784.0 L 570.0 785.0 L 569.0 786.0 L 569.0 787.0 L 568.0 788.0 L 568.0 789.0 L 567.0 790.0 L 567.0 791.0 L 566.0 792.0 L 566.0 793.0 L 565.0 794.0 L 565.0 795.0 L 564.0 796.0 L 564.0 797.0 L 563.0 798.0 L 563.0 800.0 L 562.0 801.0 L 562.0 802.0 L 561.0 803.0 L 561.0 804.0 L 560.0 805.0 L 560.0 806.0 L 559.0 807.0 L 559.0 808.0 L 558.0 809.0 L 558.0 810.0 L 557.0 811.0 L 557.0 812.0 L 556.0 813.0 L 556.0 814.0 L 555.0 815.0 L 555.0 816.0 L 554.0 817.0 L 554.0 818.0 L 553.0 819.0 L 553.0 820.0 L 552.0 821.0 L 552.0 822.0 L 551.0 823.0 L 551.0 824.0 L 550.0 825.0 L 550.0 827.0 L 549.0 828.0 L 549.0 829.0 L 548.0 830.0 L 548.0 831.0 L 547.0 832.0 L 547.0 833.0 L 546.0 834.0 L 546.0 835.0 L 545.0 836.0 L 545.0 837.0 L 544.0 838.0 L 544.0 840.0 L 543.0 841.0 L 543.0 844.0 L 542.0 845.0 L 542.0 851.0 L 543.0 852.0 L 543.0 853.0 L 544.0 854.0 L 544.0 855.0 L 545.0 856.0 L 546.0 856.0 L 547.0 857.0 L 548.0 857.0 L 549.0 858.0 L 948.0 858.0 L 950.0 856.0 L 950.0 855.0 L 953.0 852.0 L 953.0 851.0 L 956.0 848.0 L 956.0 847.0 L 959.0 844.0 L 959.0 843.0 L 962.0 840.0 L 962.0 839.0 L 965.0 836.0 L 965.0 835.0 L 968.0 832.0 L 968.0 831.0 L 971.0 828.0 L 971.0 827.0 L 975.0 823.0 L 975.0 822.0 L 977.0 820.0 L 977.0 819.0 L 981.0 815.0 L 981.0 814.0 L 984.0 811.0 L 984.0 810.0 L 987.0 807.0 L 987.0 806.0 L 990.0 803.0 L 990.0 802.0 L 993.0 799.0 L 993.0 798.0 L 996.0 795.0 L 996.0 794.0 L 999.0 791.0 L 999.0 790.0 L 1002.0 787.0 L 1002.0 786.0 L 1006.0 782.0 L 1006.0 781.0 L 1009.0 778.0 L 1009.0 777.0 L 1012.0 774.0 L 1012.0 773.0 L 1015.0 770.0 L 1015.0 769.0 L 1019.0 765.0 L 1019.0 764.0 L 1022.0 761.0 L 1022.0 760.0 L 1025.0 757.0 L 1025.0 756.0 L 1028.0 753.0 L 1028.0 752.0 L 1030.0 750.0 L 1030.0 748.0 L 743.0 748.0 L 742.0 747.0 L 740.0 747.0 L 739.0 746.0 L 738.0 746.0 L 737.0 745.0 L 736.0 745.0 L 732.0 741.0 L 732.0 740.0 L 731.0 739.0 L 731.0 737.0 L 730.0 736.0 L 730.0 732.0 L 731.0 731.0 L 731.0 728.0 L 732.0 727.0 L 732.0 725.0 L 733.0 724.0 L 733.0 723.0 L 734.0 722.0 L 734.0 721.0 L 735.0 720.0 L 735.0 718.0 L 736.0 717.0 L 736.0 716.0 L 737.0 715.0 L 737.0 714.0 L 738.0 713.0 L 738.0 712.0 L 739.0 711.0 L 739.0 710.0 L 740.0 709.0 L 740.0 708.0 L 741.0 707.0 L 741.0 706.0 L 742.0 705.0 L 742.0 704.0 L 743.0 703.0 L 743.0 702.0 L 744.0 701.0 L 744.0 700.0 L 745.0 699.0 L 745.0 697.0 L 746.0 696.0 L 746.0 695.0 L 747.0 694.0 L 747.0 693.0 L 748.0 692.0 L 748.0 691.0 L 749.0 690.0 L 749.0 689.0 L 750.0 688.0 L 750.0 687.0 L 751.0 686.0 L 751.0 685.0 L 752.0 684.0 L 752.0 683.0 L 753.0 682.0 L 753.0 681.0 L 754.0 680.0 L 754.0 679.0 L 755.0 678.0 L 755.0 676.0 L 756.0 675.0 L 756.0 674.0 L 757.0 673.0 L 757.0 672.0 L 758.0 671.0 L 758.0 670.0 L 759.0 669.0 L 759.0 668.0 L 760.0 667.0 L 760.0 666.0 L 761.0 665.0 L 761.0 664.0 L 762.0 663.0 L 762.0 662.0 L 763.0 661.0 L 763.0 660.0 L 764.0 659.0 L 764.0 658.0 L 765.0 657.0 L 765.0 656.0 L 766.0 655.0 L 766.0 654.0 L 767.0 653.0 L 767.0 652.0 L 768.0 651.0 L 768.0 650.0 L 769.0 649.0 L 769.0 648.0 L 770.0 647.0 L 770.0 646.0 L 771.0 645.0 L 771.0 644.0 L 772.0 643.0 L 772.0 642.0 L 773.0 641.0 L 773.0 640.0 L 774.0 639.0 L 774.0 638.0 L 775.0 637.0 L 775.0 636.0 L 776.0 635.0 L 776.0 634.0 L 777.0 633.0 L 777.0 632.0 L 778.0 631.0 L 778.0 630.0 L 779.0 629.0 L 779.0 628.0 L 780.0 627.0 L 780.0 626.0 L 781.0 625.0 L 781.0 624.0 L 782.0 623.0 L 782.0 622.0 L 783.0 621.0 L 783.0 620.0 L 784.0 619.0 L 784.0 618.0 L 785.0 617.0 L 785.0 616.0 L 786.0 615.0 L 786.0 614.0 L 787.0 613.0 L 787.0 612.0 L 788.0 611.0 L 788.0 610.0 L 789.0 609.0 L 789.0 608.0 L 790.0 607.0 L 790.0 606.0 L 791.0 605.0 L 791.0 604.0 L 792.0 603.0 L 792.0 602.0 L 794.0 600.0 L 794.0 599.0 L 795.0 598.0 L 795.0 597.0 L 796.0 596.0 L 796.0 595.0 L 797.0 594.0 L 797.0 593.0 L 798.0 592.0 L 798.0 591.0 L 799.0 590.0 L 799.0 589.0 L 800.0 588.0 L 800.0 587.0 L 801.0 586.0 L 801.0 585.0 L 802.0 584.0 L 802.0 583.0 L 803.0 582.0 L 803.0 581.0 L 804.0 580.0 L 804.0 579.0 L 805.0 578.0 L 805.0 577.0 L 806.0 576.0 L 806.0 575.0 L 808.0 573.0 L 808.0 572.0 L 809.0 571.0 L 809.0 570.0 L 810.0 569.0 L 810.0 568.0 L 811.0 567.0 L 811.0 566.0 L 812.0 565.0 L 812.0 564.0 L 813.0 563.0 L 813.0 562.0 L 814.0 561.0 L 814.0 560.0 L 815.0 559.0 L 815.0 558.0 L 816.0 557.0 L 816.0 556.0 L 817.0 555.0 L 817.0 554.0 L 818.0 553.0 L 818.0 552.0 L 819.0 551.0 L 819.0 550.0 L 820.0 549.0 L 820.0 548.0 L 822.0 546.0 L 822.0 545.0 L 823.0 544.0 L 823.0 543.0 L 824.0 542.0 L 824.0 541.0 L 825.0 540.0 L 825.0 539.0 L 826.0 538.0 L 826.0 537.0 L 827.0 536.0 L 827.0 535.0 L 828.0 534.0 L 828.0 533.0 L 829.0 532.0 L 829.0 531.0 L 831.0 529.0 L 831.0 528.0 L 832.0 527.0 L 832.0 526.0 L 833.0 525.0 L 833.0 524.0 L 834.0 523.0 L 834.0 522.0 L 835.0 521.0 L 835.0 520.0 L 836.0 519.0 L 836.0 518.0 L 837.0 517.0 L 837.0 516.0 L 838.0 515.0 L 838.0 514.0 L 840.0 512.0 L 840.0 511.0 L 841.0 510.0 L 841.0 509.0 L 842.0 508.0 L 842.0 507.0 L 843.0 506.0 L 843.0 505.0 L 844.0 504.0 L 844.0 503.0 L 845.0 502.0 L 845.0 501.0 L 846.0 500.0 L 846.0 499.0 L 848.0 497.0 L 848.0 496.0 L 849.0 495.0 L 849.0 494.0 L 850.0 493.0 L 850.0 492.0 L 851.0 491.0 L 851.0 490.0 L 852.0 489.0 L 852.0 488.0 L 853.0 487.0 L 853.0 486.0 L 854.0 485.0 L 854.0 484.0 L 855.0 483.0 L 855.0 482.0 L 857.0 480.0 L 857.0 479.0 L 858.0 478.0 L 858.0 477.0 L 859.0 476.0 L 859.0 475.0 L 860.0 474.0 L 860.0 473.0 L 861.0 472.0 L 861.0 471.0 L 862.0 470.0 L 862.0 469.0 L 863.0 468.0 L 863.0 467.0 L 864.0 466.0 L 864.0 465.0 L 866.0 463.0 L 866.0 462.0 L 867.0 461.0 L 867.0 460.0 L 868.0 459.0 L 868.0 458.0 L 869.0 457.0 L 869.0 456.0 L 870.0 455.0 L 870.0 454.0 L 871.0 453.0 L 871.0 452.0 L 872.0 451.0 L 872.0 450.0 L 874.0 448.0 L 874.0 447.0 L 875.0 446.0 L 875.0 445.0 L 876.0 444.0 L 876.0 443.0 L 877.0 442.0 L 877.0 441.0 L 878.0 440.0 L 878.0 439.0 L 880.0 437.0 L 880.0 436.0 L 881.0 435.0 L 881.0 434.0 L 882.0 433.0 L 882.0 432.0 L 883.0 431.0 L 883.0 430.0 L 884.0 429.0 L 884.0 428.0 L 885.0 427.0 L 885.0 426.0 L 886.0 425.0 L 886.0 424.0 L 888.0 422.0 L 888.0 421.0 L 889.0 420.0 L 889.0 419.0 L 890.0 418.0 L 890.0 417.0 L 891.0 416.0 L 891.0 415.0 L 892.0 414.0 L 892.0 413.0 L 893.0 412.0 L 893.0 411.0 L 894.0 410.0 L 894.0 409.0 L 896.0 407.0 L 896.0 406.0 L 897.0 405.0 L 897.0 404.0 L 898.0 403.0 L 898.0 402.0 L 899.0 401.0 L 899.0 400.0 L 900.0 399.0 L 900.0 398.0 L 901.0 397.0 L 901.0 396.0 L 903.0 394.0 L 903.0 393.0 L 904.0 392.0 L 904.0 391.0 L 905.0 390.0 L 905.0 389.0 L 906.0 388.0 L 906.0 387.0 L 907.0 386.0 L 907.0 385.0 L 909.0 383.0 L 909.0 382.0 L 910.0 381.0 L 910.0 380.0 L 911.0 379.0 L 911.0 378.0 L 912.0 377.0 L 912.0 376.0 L 913.0 375.0 L 913.0 374.0 L 915.0 372.0 L 915.0 371.0 L 916.0 370.0 L 916.0 369.0 L 917.0 368.0 L 917.0 367.0 L 918.0 366.0 L 918.0 365.0 L 919.0 364.0 L 919.0 363.0 L 921.0 361.0 L 921.0 360.0 L 922.0 359.0 L 922.0 358.0 L 923.0 357.0 L 923.0 356.0 L 924.0 355.0 L 924.0 354.0 L 925.0 353.0 Z"/>
    <path d="M 715.0 350.0 L 467.0 350.0 L 467.0 351.0 L 466.0 352.0 L 466.0 353.0 L 465.0 354.0 L 465.0 355.0 L 463.0 357.0 L 463.0 358.0 L 462.0 359.0 L 462.0 360.0 L 461.0 361.0 L 461.0 362.0 L 460.0 363.0 L 460.0 364.0 L 458.0 366.0 L 458.0 367.0 L 457.0 368.0 L 457.0 369.0 L 456.0 370.0 L 456.0 371.0 L 454.0 373.0 L 454.0 374.0 L 453.0 375.0 L 453.0 376.0 L 452.0 377.0 L 452.0 378.0 L 451.0 379.0 L 451.0 380.0 L 450.0 381.0 L 450.0 382.0 L 449.0 383.0 L 449.0 384.0 L 447.0 386.0 L 447.0 387.0 L 446.0 388.0 L 446.0 389.0 L 445.0 390.0 L 445.0 391.0 L 444.0 392.0 L 444.0 393.0 L 442.0 395.0 L 442.0 396.0 L 441.0 397.0 L 441.0 398.0 L 440.0 399.0 L 440.0 400.0 L 439.0 401.0 L 439.0 402.0 L 437.0 404.0 L 437.0 405.0 L 436.0 406.0 L 436.0 407.0 L 435.0 408.0 L 435.0 409.0 L 434.0 410.0 L 434.0 411.0 L 432.0 413.0 L 432.0 414.0 L 431.0 415.0 L 431.0 416.0 L 430.0 417.0 L 430.0 418.0 L 429.0 419.0 L 429.0 420.0 L 427.0 422.0 L 427.0 423.0 L 426.0 424.0 L 426.0 425.0 L 425.0 426.0 L 425.0 427.0 L 424.0 428.0 L 424.0 429.0 L 422.0 431.0 L 422.0 432.0 L 421.0 433.0 L 421.0 434.0 L 420.0 435.0 L 420.0 436.0 L 419.0 437.0 L 419.0 438.0 L 417.0 440.0 L 417.0 441.0 L 416.0 442.0 L 416.0 443.0 L 415.0 444.0 L 415.0 445.0 L 413.0 447.0 L 413.0 448.0 L 412.0 449.0 L 412.0 450.0 L 411.0 451.0 L 411.0 452.0 L 410.0 453.0 L 410.0 454.0 L 409.0 455.0 L 409.0 456.0 L 408.0 457.0 L 408.0 460.0 L 548.0 460.0 L 549.0 461.0 L 549.0 463.0 L 548.0 464.0 L 548.0 465.0 L 547.0 466.0 L 547.0 467.0 L 546.0 468.0 L 546.0 469.0 L 545.0 470.0 L 545.0 471.0 L 544.0 472.0 L 544.0 473.0 L 543.0 474.0 L 543.0 475.0 L 542.0 476.0 L 542.0 477.0 L 541.0 478.0 L 541.0 479.0 L 540.0 480.0 L 540.0 481.0 L 539.0 482.0 L 539.0 483.0 L 538.0 484.0 L 538.0 485.0 L 537.0 486.0 L 537.0 487.0 L 536.0 488.0 L 536.0 489.0 L 535.0 490.0 L 535.0 491.0 L 534.0 492.0 L 534.0 493.0 L 533.0 494.0 L 533.0 495.0 L 532.0 496.0 L 532.0 497.0 L 531.0 498.0 L 531.0 499.0 L 530.0 500.0 L 530.0 501.0 L 529.0 502.0 L 529.0 503.0 L 528.0 504.0 L 528.0 505.0 L 527.0 506.0 L 527.0 507.0 L 526.0 508.0 L 526.0 509.0 L 525.0 510.0 L 525.0 511.0 L 524.0 512.0 L 524.0 513.0 L 523.0 514.0 L 523.0 515.0 L 522.0 516.0 L 522.0 517.0 L 521.0 518.0 L 521.0 519.0 L 520.0 520.0 L 520.0 521.0 L 519.0 522.0 L 519.0 523.0 L 518.0 524.0 L 518.0 525.0 L 517.0 526.0 L 517.0 527.0 L 516.0 528.0 L 516.0 529.0 L 515.0 530.0 L 515.0 531.0 L 514.0 532.0 L 514.0 533.0 L 513.0 534.0 L 513.0 535.0 L 512.0 536.0 L 512.0 537.0 L 511.0 538.0 L 511.0 539.0 L 510.0 540.0 L 510.0 541.0 L 509.0 542.0 L 509.0 543.0 L 508.0 544.0 L 508.0 545.0 L 507.0 546.0 L 507.0 548.0 L 506.0 549.0 L 506.0 550.0 L 505.0 551.0 L 505.0 552.0 L 504.0 553.0 L 504.0 554.0 L 503.0 555.0 L 503.0 556.0 L 502.0 557.0 L 502.0 558.0 L 501.0 559.0 L 501.0 560.0 L 500.0 561.0 L 500.0 562.0 L 499.0 563.0 L 499.0 564.0 L 498.0 565.0 L 498.0 566.0 L 497.0 567.0 L 497.0 568.0 L 496.0 569.0 L 496.0 570.0 L 495.0 571.0 L 495.0 572.0 L 494.0 573.0 L 494.0 574.0 L 493.0 575.0 L 493.0 576.0 L 492.0 577.0 L 492.0 578.0 L 491.0 579.0 L 491.0 580.0 L 490.0 581.0 L 490.0 582.0 L 489.0 583.0 L 489.0 584.0 L 488.0 585.0 L 488.0 586.0 L 487.0 587.0 L 487.0 588.0 L 486.0 589.0 L 486.0 590.0 L 485.0 591.0 L 485.0 592.0 L 484.0 593.0 L 484.0 594.0 L 483.0 595.0 L 483.0 596.0 L 482.0 597.0 L 482.0 598.0 L 481.0 599.0 L 481.0 600.0 L 480.0 601.0 L 480.0 602.0 L 479.0 603.0 L 479.0 604.0 L 478.0 605.0 L 478.0 607.0 L 476.0 609.0 L 476.0 611.0 L 474.0 613.0 L 474.0 615.0 L 473.0 616.0 L 473.0 617.0 L 472.0 618.0 L 472.0 619.0 L 471.0 620.0 L 471.0 621.0 L 470.0 622.0 L 470.0 623.0 L 469.0 624.0 L 469.0 625.0 L 468.0 626.0 L 468.0 627.0 L 467.0 628.0 L 467.0 629.0 L 466.0 630.0 L 466.0 631.0 L 465.0 632.0 L 465.0 633.0 L 464.0 634.0 L 464.0 635.0 L 463.0 636.0 L 463.0 637.0 L 462.0 638.0 L 462.0 639.0 L 461.0 640.0 L 461.0 641.0 L 460.0 642.0 L 460.0 643.0 L 459.0 644.0 L 459.0 645.0 L 458.0 646.0 L 458.0 647.0 L 457.0 648.0 L 457.0 649.0 L 456.0 650.0 L 456.0 651.0 L 455.0 652.0 L 455.0 653.0 L 454.0 654.0 L 454.0 655.0 L 453.0 656.0 L 453.0 657.0 L 452.0 658.0 L 452.0 660.0 L 451.0 661.0 L 451.0 662.0 L 450.0 663.0 L 450.0 664.0 L 449.0 665.0 L 449.0 666.0 L 448.0 667.0 L 448.0 668.0 L 447.0 669.0 L 447.0 670.0 L 446.0 671.0 L 446.0 672.0 L 445.0 673.0 L 445.0 674.0 L 444.0 675.0 L 444.0 676.0 L 443.0 677.0 L 443.0 678.0 L 442.0 679.0 L 442.0 680.0 L 441.0 681.0 L 441.0 682.0 L 440.0 683.0 L 440.0 684.0 L 439.0 685.0 L 439.0 686.0 L 438.0 687.0 L 438.0 688.0 L 437.0 689.0 L 437.0 690.0 L 436.0 691.0 L 436.0 692.0 L 435.0 693.0 L 435.0 694.0 L 434.0 695.0 L 434.0 697.0 L 432.0 699.0 L 432.0 700.0 L 431.0 701.0 L 431.0 702.0 L 430.0 703.0 L 430.0 704.0 L 428.0 706.0 L 428.0 707.0 L 426.0 709.0 L 426.0 710.0 L 424.0 712.0 L 424.0 713.0 L 420.0 717.0 L 420.0 718.0 L 408.0 730.0 L 407.0 730.0 L 403.0 734.0 L 402.0 734.0 L 400.0 736.0 L 399.0 736.0 L 397.0 738.0 L 396.0 738.0 L 395.0 739.0 L 394.0 739.0 L 393.0 740.0 L 392.0 740.0 L 391.0 741.0 L 390.0 741.0 L 389.0 742.0 L 388.0 742.0 L 387.0 743.0 L 386.0 743.0 L 385.0 744.0 L 383.0 744.0 L 382.0 745.0 L 380.0 745.0 L 379.0 746.0 L 376.0 746.0 L 375.0 747.0 L 371.0 747.0 L 370.0 748.0 L 338.0 748.0 L 337.0 749.0 L 257.0 749.0 L 257.0 750.0 L 256.0 751.0 L 256.0 752.0 L 255.0 753.0 L 255.0 754.0 L 254.0 755.0 L 254.0 756.0 L 252.0 758.0 L 252.0 759.0 L 251.0 760.0 L 251.0 761.0 L 250.0 762.0 L 250.0 763.0 L 249.0 764.0 L 249.0 765.0 L 248.0 766.0 L 248.0 767.0 L 247.0 768.0 L 247.0 769.0 L 246.0 770.0 L 246.0 771.0 L 245.0 772.0 L 245.0 773.0 L 244.0 774.0 L 244.0 775.0 L 243.0 776.0 L 243.0 777.0 L 242.0 778.0 L 242.0 779.0 L 241.0 780.0 L 241.0 781.0 L 240.0 782.0 L 240.0 783.0 L 239.0 784.0 L 239.0 785.0 L 237.0 787.0 L 237.0 788.0 L 236.0 789.0 L 236.0 790.0 L 235.0 791.0 L 235.0 792.0 L 234.0 793.0 L 234.0 794.0 L 233.0 795.0 L 233.0 796.0 L 232.0 797.0 L 232.0 798.0 L 231.0 799.0 L 231.0 800.0 L 230.0 801.0 L 230.0 802.0 L 229.0 803.0 L 229.0 804.0 L 228.0 805.0 L 228.0 806.0 L 227.0 807.0 L 227.0 808.0 L 226.0 809.0 L 226.0 810.0 L 224.0 812.0 L 224.0 813.0 L 223.0 814.0 L 223.0 815.0 L 222.0 816.0 L 222.0 817.0 L 221.0 818.0 L 221.0 819.0 L 220.0 820.0 L 220.0 821.0 L 219.0 822.0 L 219.0 823.0 L 218.0 824.0 L 218.0 825.0 L 217.0 826.0 L 217.0 827.0 L 216.0 828.0 L 216.0 829.0 L 215.0 830.0 L 215.0 831.0 L 214.0 832.0 L 214.0 833.0 L 212.0 835.0 L 212.0 836.0 L 211.0 837.0 L 211.0 838.0 L 210.0 839.0 L 210.0 840.0 L 209.0 841.0 L 209.0 842.0 L 208.0 843.0 L 208.0 844.0 L 207.0 845.0 L 207.0 846.0 L 206.0 847.0 L 206.0 848.0 L 205.0 849.0 L 205.0 850.0 L 204.0 851.0 L 204.0 852.0 L 203.0 853.0 L 203.0 854.0 L 202.0 855.0 L 202.0 858.0 L 400.0 858.0 L 401.0 857.0 L 407.0 857.0 L 408.0 856.0 L 412.0 856.0 L 413.0 855.0 L 417.0 855.0 L 418.0 854.0 L 420.0 854.0 L 421.0 853.0 L 424.0 853.0 L 425.0 852.0 L 427.0 852.0 L 428.0 851.0 L 429.0 851.0 L 430.0 850.0 L 432.0 850.0 L 433.0 849.0 L 435.0 849.0 L 436.0 848.0 L 437.0 848.0 L 438.0 847.0 L 439.0 847.0 L 440.0 846.0 L 441.0 846.0 L 442.0 845.0 L 443.0 845.0 L 444.0 844.0 L 445.0 844.0 L 446.0 843.0 L 447.0 843.0 L 448.0 842.0 L 449.0 842.0 L 450.0 841.0 L 451.0 841.0 L 453.0 839.0 L 454.0 839.0 L 455.0 838.0 L 456.0 838.0 L 458.0 836.0 L 459.0 836.0 L 462.0 833.0 L 463.0 833.0 L 465.0 831.0 L 466.0 831.0 L 470.0 827.0 L 471.0 827.0 L 489.0 809.0 L 489.0 808.0 L 493.0 804.0 L 493.0 803.0 L 496.0 800.0 L 496.0 799.0 L 498.0 797.0 L 498.0 796.0 L 500.0 794.0 L 500.0 793.0 L 502.0 791.0 L 502.0 790.0 L 504.0 788.0 L 504.0 787.0 L 505.0 786.0 L 505.0 785.0 L 506.0 784.0 L 506.0 783.0 L 507.0 782.0 L 507.0 781.0 L 508.0 780.0 L 508.0 779.0 L 509.0 778.0 L 509.0 777.0 L 510.0 776.0 L 510.0 775.0 L 511.0 774.0 L 511.0 773.0 L 512.0 772.0 L 512.0 771.0 L 513.0 770.0 L 513.0 769.0 L 514.0 768.0 L 514.0 767.0 L 515.0 766.0 L 515.0 765.0 L 516.0 764.0 L 516.0 763.0 L 517.0 762.0 L 517.0 761.0 L 518.0 760.0 L 518.0 759.0 L 519.0 758.0 L 519.0 756.0 L 520.0 755.0 L 520.0 754.0 L 521.0 753.0 L 521.0 752.0 L 522.0 751.0 L 522.0 750.0 L 523.0 749.0 L 523.0 748.0 L 524.0 747.0 L 524.0 746.0 L 525.0 745.0 L 525.0 744.0 L 526.0 743.0 L 526.0 742.0 L 527.0 741.0 L 527.0 740.0 L 528.0 739.0 L 528.0 738.0 L 529.0 737.0 L 529.0 736.0 L 530.0 735.0 L 530.0 734.0 L 531.0 733.0 L 531.0 732.0 L 532.0 731.0 L 532.0 730.0 L 533.0 729.0 L 533.0 728.0 L 534.0 727.0 L 534.0 726.0 L 535.0 725.0 L 535.0 724.0 L 536.0 723.0 L 536.0 721.0 L 537.0 720.0 L 537.0 719.0 L 538.0 718.0 L 538.0 717.0 L 539.0 716.0 L 539.0 715.0 L 540.0 714.0 L 540.0 713.0 L 541.0 712.0 L 541.0 711.0 L 542.0 710.0 L 542.0 709.0 L 543.0 708.0 L 543.0 707.0 L 544.0 706.0 L 544.0 705.0 L 545.0 704.0 L 545.0 703.0 L 546.0 702.0 L 546.0 701.0 L 547.0 700.0 L 547.0 699.0 L 548.0 698.0 L 548.0 697.0 L 549.0 696.0 L 549.0 695.0 L 550.0 694.0 L 550.0 692.0 L 551.0 691.0 L 551.0 690.0 L 552.0 689.0 L 552.0 688.0 L 553.0 687.0 L 553.0 686.0 L 554.0 685.0 L 554.0 684.0 L 555.0 683.0 L 555.0 682.0 L 556.0 681.0 L 556.0 680.0 L 557.0 679.0 L 557.0 678.0 L 558.0 677.0 L 558.0 676.0 L 559.0 675.0 L 559.0 674.0 L 560.0 673.0 L 560.0 672.0 L 561.0 671.0 L 561.0 670.0 L 562.0 669.0 L 562.0 668.0 L 563.0 667.0 L 563.0 665.0 L 564.0 664.0 L 564.0 663.0 L 565.0 662.0 L 565.0 661.0 L 566.0 660.0 L 566.0 659.0 L 567.0 658.0 L 567.0 657.0 L 568.0 656.0 L 568.0 655.0 L 569.0 654.0 L 569.0 653.0 L 570.0 652.0 L 570.0 651.0 L 571.0 650.0 L 571.0 649.0 L 572.0 648.0 L 572.0 647.0 L 573.0 646.0 L 573.0 645.0 L 574.0 644.0 L 574.0 643.0 L 575.0 642.0 L 575.0 641.0 L 576.0 640.0 L 576.0 639.0 L 577.0 638.0 L 577.0 637.0 L 578.0 636.0 L 578.0 635.0 L 579.0 634.0 L 579.0 633.0 L 580.0 632.0 L 580.0 631.0 L 581.0 630.0 L 581.0 628.0 L 582.0 627.0 L 582.0 626.0 L 583.0 625.0 L 583.0 624.0 L 584.0 623.0 L 584.0 622.0 L 585.0 621.0 L 585.0 620.0 L 586.0 619.0 L 586.0 618.0 L 587.0 617.0 L 587.0 616.0 L 588.0 615.0 L 588.0 614.0 L 589.0 613.0 L 589.0 612.0 L 590.0 611.0 L 590.0 610.0 L 591.0 609.0 L 591.0 608.0 L 592.0 607.0 L 592.0 606.0 L 593.0 605.0 L 593.0 604.0 L 594.0 603.0 L 594.0 602.0 L 595.0 601.0 L 595.0 600.0 L 596.0 599.0 L 596.0 598.0 L 597.0 597.0 L 597.0 596.0 L 598.0 595.0 L 598.0 594.0 L 599.0 593.0 L 599.0 591.0 L 600.0 590.0 L 600.0 589.0 L 601.0 588.0 L 601.0 587.0 L 602.0 586.0 L 602.0 585.0 L 603.0 584.0 L 603.0 583.0 L 604.0 582.0 L 604.0 581.0 L 605.0 580.0 L 605.0 579.0 L 606.0 578.0 L 606.0 577.0 L 607.0 576.0 L 607.0 575.0 L 608.0 574.0 L 608.0 573.0 L 609.0 572.0 L 609.0 571.0 L 610.0 570.0 L 610.0 569.0 L 611.0 568.0 L 611.0 567.0 L 612.0 566.0 L 612.0 565.0 L 613.0 564.0 L 613.0 563.0 L 614.0 562.0 L 614.0 561.0 L 615.0 560.0 L 615.0 559.0 L 616.0 558.0 L 616.0 557.0 L 617.0 556.0 L 617.0 554.0 L 618.0 553.0 L 618.0 552.0 L 619.0 551.0 L 619.0 550.0 L 620.0 549.0 L 620.0 548.0 L 621.0 547.0 L 621.0 546.0 L 622.0 545.0 L 622.0 544.0 L 623.0 543.0 L 623.0 542.0 L 624.0 541.0 L 624.0 540.0 L 625.0 539.0 L 625.0 538.0 L 626.0 537.0 L 626.0 536.0 L 627.0 535.0 L 627.0 534.0 L 628.0 533.0 L 628.0 532.0 L 629.0 531.0 L 629.0 530.0 L 630.0 529.0 L 630.0 528.0 L 631.0 527.0 L 631.0 525.0 L 632.0 524.0 L 632.0 523.0 L 633.0 522.0 L 633.0 521.0 L 634.0 520.0 L 634.0 519.0 L 635.0 518.0 L 635.0 517.0 L 636.0 516.0 L 636.0 515.0 L 637.0 514.0 L 637.0 513.0 L 638.0 512.0 L 638.0 511.0 L 639.0 510.0 L 639.0 509.0 L 640.0 508.0 L 640.0 507.0 L 641.0 506.0 L 641.0 505.0 L 642.0 504.0 L 642.0 503.0 L 643.0 502.0 L 643.0 501.0 L 644.0 500.0 L 644.0 499.0 L 645.0 498.0 L 645.0 497.0 L 646.0 496.0 L 646.0 495.0 L 647.0 494.0 L 647.0 492.0 L 648.0 491.0 L 648.0 490.0 L 649.0 489.0 L 649.0 488.0 L 650.0 487.0 L 650.0 486.0 L 651.0 485.0 L 651.0 484.0 L 652.0 483.0 L 652.0 482.0 L 653.0 481.0 L 653.0 480.0 L 654.0 479.0 L 654.0 478.0 L 655.0 477.0 L 655.0 476.0 L 656.0 475.0 L 656.0 474.0 L 657.0 473.0 L 657.0 472.0 L 658.0 471.0 L 658.0 470.0 L 659.0 469.0 L 659.0 468.0 L 660.0 467.0 L 660.0 466.0 L 661.0 465.0 L 661.0 464.0 L 662.0 463.0 L 662.0 462.0 L 663.0 461.0 L 663.0 460.0 L 664.0 459.0 L 664.0 457.0 L 665.0 456.0 L 665.0 455.0 L 666.0 454.0 L 666.0 453.0 L 667.0 452.0 L 667.0 451.0 L 668.0 450.0 L 668.0 449.0 L 669.0 448.0 L 669.0 447.0 L 670.0 446.0 L 670.0 445.0 L 671.0 444.0 L 671.0 443.0 L 672.0 442.0 L 672.0 441.0 L 673.0 440.0 L 673.0 439.0 L 674.0 438.0 L 674.0 437.0 L 675.0 436.0 L 675.0 435.0 L 676.0 434.0 L 676.0 433.0 L 677.0 432.0 L 677.0 431.0 L 678.0 430.0 L 678.0 428.0 L 679.0 427.0 L 679.0 426.0 L 680.0 425.0 L 680.0 424.0 L 681.0 423.0 L 681.0 422.0 L 682.0 421.0 L 682.0 420.0 L 683.0 419.0 L 683.0 418.0 L 684.0 417.0 L 684.0 416.0 L 685.0 415.0 L 685.0 414.0 L 686.0 413.0 L 686.0 412.0 L 687.0 411.0 L 687.0 410.0 L 688.0 409.0 L 688.0 408.0 L 689.0 407.0 L 689.0 406.0 L 690.0 405.0 L 690.0 404.0 L 691.0 403.0 L 691.0 402.0 L 692.0 401.0 L 692.0 400.0 L 693.0 399.0 L 693.0 398.0 L 694.0 397.0 L 694.0 395.0 L 695.0 394.0 L 695.0 393.0 L 696.0 392.0 L 696.0 391.0 L 697.0 390.0 L 697.0 389.0 L 698.0 388.0 L 698.0 387.0 L 699.0 386.0 L 699.0 385.0 L 700.0 384.0 L 700.0 383.0 L 701.0 382.0 L 701.0 381.0 L 702.0 380.0 L 702.0 379.0 L 703.0 378.0 L 703.0 377.0 L 704.0 376.0 L 704.0 375.0 L 705.0 374.0 L 705.0 373.0 L 706.0 372.0 L 706.0 371.0 L 707.0 370.0 L 707.0 368.0 L 708.0 367.0 L 708.0 366.0 L 709.0 365.0 L 709.0 364.0 L 710.0 363.0 L 710.0 362.0 L 711.0 361.0 L 711.0 360.0 L 712.0 359.0 L 712.0 358.0 L 713.0 357.0 L 713.0 356.0 L 714.0 355.0 L 714.0 354.0 L 715.0 353.0 Z"/>
  </g>
</svg>
