<svg xmlns="http://www.w3.org/2000/svg" viewBox="0 0 494 513" width="494" height="513">
  <path d="M 408.00 510.50 L 9.00 510.50 L 3.50 507.00 L 1.50 502.00 L 1.50 497.00 L 2.50 496.00 L 3.50 490.00 L 12.50 473.00 L 12.50 471.00 L 49.50 396.00 L 49.50 394.00 L 81.50 329.00 L 81.50 327.00 L 92.50 306.00 L 92.50 304.00 L 104.50 281.00 L 104.50 279.00 L 114.50 260.00 L 114.50 258.00 L 142.50 202.00 L 142.50 200.00 L 159.50 167.00 L 159.50 165.00 L 163.50 157.00 L 165.50 155.00 L 165.50 153.00 L 182.50 120.00 L 182.50 118.00 L 224.50 34.00 L 226.50 32.00 L 228.50 27.00 L 232.50 21.00 L 241.00 11.50 L 248.00 6.50 L 258.00 2.50 L 261.00 2.50 L 262.00 1.50 L 386.50 2.00 L 382.50 11.00 L 380.50 13.00 L 376.50 22.00 L 374.50 24.00 L 370.50 33.00 L 368.50 35.00 L 364.50 44.00 L 362.50 46.00 L 357.50 57.00 L 355.50 59.00 L 350.50 70.00 L 348.50 72.00 L 343.50 83.00 L 341.50 85.00 L 335.50 98.00 L 333.50 100.00 L 327.50 113.00 L 325.50 115.00 L 310.50 145.00 L 308.50 147.00 L 283.50 196.00 L 281.50 198.00 L 258.50 244.00 L 256.50 246.00 L 212.50 334.00 L 212.50 336.00 L 203.50 353.00 L 203.50 355.00 L 199.50 361.00 L 199.50 363.00 L 191.50 379.00 L 190.50 389.00 L 192.50 393.00 L 197.00 397.50 L 202.00 399.50 L 491.00 399.50 L 491.50 401.00 L 487.50 405.00 L 485.50 409.00 L 481.50 413.00 L 469.50 430.00 L 465.50 434.00 L 453.50 451.00 L 449.50 455.00 L 447.50 459.00 L 443.50 463.00 L 408.00 510.50 Z" fill="#000000"/>
</svg>